<svg width="20" height="18" viewBox="0 0 20 18" fill="none" xmlns="http://www.w3.org/2000/svg">
<path d="M10.295 18H1.24306C0.666787 18 0.199928 17.5551 0.199928 17.0065V0.993454C0.199928 0.444694 0.66686 0 1.24306 0H18.0569C18.6329 0 19.0999 0.444694 19.0999 0.993454V17.0065C19.0999 17.5552 18.6329 18 18.0569 18H13.2407V11.0294H15.6973L16.0652 8.31284H13.2407V6.57849C13.2407 5.79198 13.47 5.256 14.6542 5.256L16.1646 5.25537V2.82566C15.9034 2.79255 15.0068 2.71859 13.9637 2.71859C11.786 2.71859 10.295 3.98457 10.295 6.30945V8.31284H7.83203V11.0294H10.295V18Z" fill="white"/>
</svg>
