<svg width="20" height="18" viewBox="0 0 20 18" fill="none" xmlns="http://www.w3.org/2000/svg">
<path fill-rule="evenodd" clip-rule="evenodd" d="M17.2414 12.26L14.5744 11.97C13.9339 11.9 13.3039 12.11 12.8524 12.54L10.9204 14.38C7.94893 12.94 5.51293 10.63 4.00093 7.79001L5.94343 5.94001C6.39493 5.51001 6.61543 4.91001 6.54193 4.30001L6.23743 1.78001C6.11143 0.77001 5.21893 0.0100098 4.14793 0.0100098H2.33143C1.14493 0.0100098 0.157927 0.95001 0.231427 2.08001C0.787927 10.62 7.95943 17.44 16.9159 17.97C18.1024 18.04 19.0894 17.1 19.0894 15.97V14.24C19.0999 13.23 18.3019 12.38 17.2414 12.26Z" fill="white"/>
</svg>
