<svg width="15" height="20" viewBox="0 0 15 20" fill="none" xmlns="http://www.w3.org/2000/svg">
<path fill-rule="evenodd" clip-rule="evenodd" d="M0.299927 7C0.299927 3.13 3.58643 0 7.64993 0C11.7134 0 14.9999 3.13 14.9999 7C14.9999 11.17 10.3589 16.92 8.45843 19.11C8.03843 19.59 7.27193 19.59 6.85193 19.11C4.94093 16.92 0.299927 11.17 0.299927 7ZM5.02493 7C5.02493 8.38 6.20093 9.5 7.64993 9.5C9.09893 9.5 10.2749 8.38 10.2749 7C10.2749 5.62 9.09893 4.5 7.64993 4.5C6.20093 4.5 5.02493 5.62 5.02493 7Z" fill="white"/>
</svg>
