<svg width="20" height="15" viewBox="0 0 20 15" fill="none" xmlns="http://www.w3.org/2000/svg">
<path d="M19.2999 1.77573C18.6055 2.07692 17.8578 2.28061 17.0735 2.37161C17.8744 1.90358 18.489 1.16143 18.7785 0.277356C18.0286 0.710726 17.1999 1.026 16.3147 1.19502C15.6091 0.459372 14.6007 0 13.4847 0C11.3448 0 9.60863 1.69556 9.60863 3.78657C9.60863 4.08342 9.64191 4.37161 9.70848 4.64897C6.48581 4.49079 3.62924 2.98483 1.71561 0.691224C1.38169 1.25244 1.19088 1.90358 1.19088 2.59697C1.19088 3.91008 1.87535 5.06934 2.91592 5.74865C2.28138 5.73023 1.68233 5.55796 1.15871 5.27627V5.32286C1.15871 7.15818 2.49548 8.68906 4.27044 9.03575C3.9454 9.12459 3.60261 9.16901 3.24873 9.16901C2.99913 9.16901 2.75507 9.14626 2.51878 9.10184C3.01244 10.6056 4.4435 11.701 6.14081 11.7302C4.81402 12.7465 3.14112 13.3521 1.32512 13.3521C1.01228 13.3521 0.70277 13.3348 0.399918 13.3001C2.11608 14.3727 4.15507 15 6.34382 15C13.4769 15 17.3763 9.23077 17.3763 4.22644C17.3763 4.06176 17.373 3.89707 17.3663 3.73564C18.124 3.20152 18.7819 2.53521 19.2999 1.77573Z" fill="white"/>
</svg>
