<svg width="157" height="27" viewBox="0 0 157 27" fill="none" xmlns="http://www.w3.org/2000/svg">
<path d="M10.544 7.296L11.824 9.472L2.768 14.688L11.824 19.904L10.544 22.112L0.24 16.16V13.248L10.544 7.296Z" fill="#2065CC"/>
<path d="M21.9433 0.895998L24.2153 1.696L15.0313 26.912L12.7913 26.08L21.9433 0.895998ZM63.2918 17.056C63.0784 18.5493 62.5664 19.84 61.7558 20.928C60.9451 22.016 59.9104 22.8587 58.6518 23.456C57.4144 24.032 56.0278 24.32 54.4918 24.32C53.0624 24.32 51.7398 24.0747 50.5238 23.584C49.3078 23.072 48.2411 22.3467 47.3238 21.408C46.4278 20.4693 45.7238 19.3387 45.2118 18.016C44.6998 16.6933 44.4438 15.2213 44.4438 13.6C44.4438 11.9573 44.6998 10.4853 45.2118 9.184C45.7238 7.86133 46.4278 6.73067 47.3238 5.792C48.2411 4.85333 49.3078 4.13867 50.5238 3.648C51.7398 3.136 53.0624 2.88 54.4918 2.88C56.0491 2.88 57.4464 3.17867 58.6838 3.776C59.9424 4.352 60.9771 5.19467 61.7878 6.304C62.5984 7.392 63.1104 8.69333 63.3238 10.208H60.9558C60.6571 9.14133 60.1878 8.24533 59.5478 7.52C58.9291 6.79467 58.1824 6.24 57.3078 5.856C56.4331 5.472 55.4944 5.28 54.4918 5.28C53.1904 5.28 51.9638 5.6 50.8118 6.24C49.6811 6.88 48.7638 7.81867 48.0598 9.056C47.3558 10.2933 47.0038 11.808 47.0038 13.6C47.0038 15.392 47.3558 16.9067 48.0598 18.144C48.7638 19.3813 49.6811 20.32 50.8118 20.96C51.9638 21.6 53.1904 21.92 54.4918 21.92C55.4944 21.92 56.4224 21.7387 57.2758 21.376C58.1504 20.992 58.8971 20.4373 59.5158 19.712C60.1558 18.9867 60.6251 18.1013 60.9237 17.056H63.2918ZM70.7615 24.32C69.3962 24.32 68.1162 23.9893 66.9215 23.328C65.7268 22.6667 64.7562 21.7173 64.0095 20.48C63.2842 19.2213 62.9215 17.7387 62.9215 16.032C62.9215 14.3253 63.2842 12.8533 64.0095 11.616C64.7562 10.3573 65.7268 9.38667 66.9215 8.704C68.1162 8.02133 69.3962 7.68 70.7615 7.68C72.1268 7.68 73.3962 8.02133 74.5695 8.704C75.7642 9.38667 76.7242 10.3573 77.4495 11.616C78.1748 12.8533 78.5375 14.3253 78.5375 16.032C78.5375 17.7387 78.1748 19.2213 77.4495 20.48C76.7242 21.7173 75.7642 22.6667 74.5695 23.328C73.3962 23.9893 72.1268 24.32 70.7615 24.32ZM70.7615 21.92C71.6575 21.92 72.5002 21.696 73.2895 21.248C74.0788 20.8 74.7188 20.1387 75.2095 19.264C75.7215 18.368 75.9775 17.2907 75.9775 16.032C75.9775 14.7733 75.7215 13.7067 75.2095 12.832C74.7188 11.936 74.0788 11.2533 73.2895 10.784C72.5002 10.3147 71.6575 10.08 70.7615 10.08C69.8655 10.08 69.0122 10.3147 68.2015 10.784C67.4122 11.232 66.7615 11.904 66.2495 12.8C65.7375 13.6747 65.4815 14.752 65.4815 16.032C65.4815 17.2907 65.7268 18.368 66.2175 19.264C66.7295 20.1387 67.3908 20.8 68.2015 21.248C69.0122 21.696 69.8655 21.92 70.7615 21.92ZM84.6342 24.32C83.3542 24.32 82.1809 23.968 81.1142 23.264C80.0689 22.5387 79.2369 21.5573 78.6182 20.32C77.9996 19.0613 77.6902 17.632 77.6902 16.032C77.6902 14.432 77.9889 13.0027 78.5862 11.744C79.1836 10.4853 80.0049 9.49333 81.0502 8.768C82.0956 8.04267 83.2902 7.68 84.6342 7.68C85.8289 7.68 86.7996 7.904 87.5462 8.352C88.3142 8.77867 88.9009 9.376 89.3062 10.144C89.7116 10.912 89.9889 11.7973 90.1382 12.8C90.3089 13.8027 90.3942 14.88 90.3942 16.032C90.3942 16.8427 90.3089 17.728 90.1382 18.688C89.9676 19.6267 89.6689 20.5333 89.2422 21.408C88.8369 22.2613 88.2609 22.9653 87.5142 23.52C86.7676 24.0533 85.8076 24.32 84.6342 24.32ZM85.2742 21.888C86.3622 21.888 87.2582 21.6213 87.9622 21.088C88.6876 20.5547 89.2209 19.8507 89.5622 18.976C89.9036 18.08 90.0742 17.0987 90.0742 16.032C90.0742 14.8587 89.8929 13.8347 89.5302 12.96C89.1889 12.064 88.6556 11.3707 87.9302 10.88C87.2262 10.368 86.3409 10.112 85.2742 10.112C83.6742 10.112 82.4369 10.6773 81.5622 11.808C80.6876 12.9173 80.2502 14.3253 80.2502 16.032C80.2502 17.1627 80.4636 18.176 80.8902 19.072C81.3382 19.9467 81.9356 20.64 82.6822 21.152C83.4502 21.6427 84.3142 21.888 85.2742 21.888ZM90.0742 1.6H92.6342V24H90.2982C90.2556 23.5307 90.2022 22.976 90.1382 22.336C90.0956 21.696 90.0742 21.184 90.0742 20.8V1.6ZM105.402 18.848H107.802C107.631 19.8933 107.247 20.832 106.65 21.664C106.074 22.4747 105.306 23.1253 104.346 23.616C103.407 24.0853 102.319 24.32 101.082 24.32C99.5884 24.32 98.2444 23.968 97.0498 23.264C95.8551 22.5387 94.9058 21.5573 94.2018 20.32C93.5191 19.0613 93.1778 17.632 93.1778 16.032C93.1778 14.432 93.5084 13.0027 94.1698 11.744C94.8524 10.4853 95.7804 9.49333 96.9538 8.768C98.1271 8.04267 99.4498 7.68 100.922 7.68C102.479 7.68 103.791 8.032 104.858 8.736C105.946 9.41867 106.746 10.432 107.258 11.776C107.791 13.0987 108.004 14.7307 107.898 16.672H95.7378C95.8444 17.7173 96.1324 18.6347 96.6018 19.424C97.0711 20.2133 97.6898 20.832 98.4578 21.28C99.2258 21.7067 100.1 21.92 101.082 21.92C102.17 21.92 103.087 21.6427 103.834 21.088C104.602 20.512 105.124 19.7653 105.402 18.848ZM101.018 10.08C99.6951 10.08 98.5858 10.464 97.6898 11.232C96.7938 12 96.1964 13.0453 95.8978 14.368H105.274C105.188 12.96 104.73 11.8933 103.898 11.168C103.087 10.4427 102.127 10.08 101.018 10.08ZM114.943 24.32C113.577 24.32 112.297 23.9893 111.103 23.328C109.908 22.6667 108.937 21.7173 108.191 20.48C107.465 19.2213 107.103 17.7387 107.103 16.032C107.103 14.3253 107.465 12.8533 108.191 11.616C108.937 10.3573 109.908 9.38667 111.103 8.704C112.297 8.02133 113.577 7.68 114.943 7.68C116.308 7.68 117.577 8.02133 118.751 8.704C119.945 9.38667 120.905 10.3573 121.631 11.616C122.356 12.8533 122.719 14.3253 122.719 16.032C122.719 17.7387 122.356 19.2213 121.631 20.48C120.905 21.7173 119.945 22.6667 118.751 23.328C117.577 23.9893 116.308 24.32 114.943 24.32ZM114.943 21.92C115.839 21.92 116.681 21.696 117.471 21.248C118.26 20.8 118.9 20.1387 119.391 19.264C119.903 18.368 120.159 17.2907 120.159 16.032C120.159 14.7733 119.903 13.7067 119.391 12.832C118.9 11.936 118.26 11.2533 117.471 10.784C116.681 10.3147 115.839 10.08 114.943 10.08C114.047 10.08 113.193 10.3147 112.383 10.784C111.593 11.232 110.943 11.904 110.431 12.8C109.919 13.6747 109.663 14.752 109.663 16.032C109.663 17.2907 109.908 18.368 110.399 19.264C110.911 20.1387 111.572 20.8 112.383 21.248C113.193 21.696 114.047 21.92 114.943 21.92ZM136.336 24H133.776V8H136.336V24ZM133.936 16.544L133.968 17.44C133.946 17.696 133.882 18.0907 133.776 18.624C133.69 19.1573 133.53 19.7547 133.296 20.416C133.082 21.056 132.762 21.6747 132.336 22.272C131.93 22.8693 131.397 23.36 130.736 23.744C130.096 24.128 129.296 24.32 128.336 24.32C127.717 24.32 127.077 24.224 126.416 24.032C125.776 23.8613 125.178 23.5733 124.624 23.168C124.069 22.7413 123.621 22.1547 123.28 21.408C122.938 20.6613 122.768 19.7333 122.768 18.624V8H125.328V17.984C125.328 18.944 125.477 19.7013 125.776 20.256C126.096 20.7893 126.522 21.1733 127.056 21.408C127.589 21.6427 128.186 21.76 128.848 21.76C129.936 21.76 130.842 21.4827 131.568 20.928C132.293 20.3733 132.848 19.6907 133.232 18.88C133.616 18.0693 133.85 17.2907 133.936 16.544ZM136.166 8H145.574V10.4H136.166V8ZM139.59 3.84H142.15V24H139.59V3.84ZM144.631 18.848H146.999C147.063 19.7653 147.404 20.512 148.023 21.088C148.663 21.664 149.58 21.952 150.775 21.952C151.5 21.952 152.065 21.856 152.471 21.664C152.897 21.472 153.207 21.216 153.399 20.896C153.591 20.5547 153.687 20.1813 153.687 19.776C153.687 19.2853 153.559 18.9013 153.303 18.624C153.068 18.3253 152.737 18.08 152.311 17.888C151.905 17.696 151.436 17.5147 150.903 17.344C150.284 17.1093 149.644 16.864 148.983 16.608C148.343 16.3307 147.735 16.0107 147.159 15.648C146.604 15.264 146.156 14.8053 145.815 14.272C145.473 13.7173 145.303 13.056 145.303 12.288C145.303 11.648 145.431 11.0507 145.687 10.496C145.943 9.92 146.305 9.42933 146.775 9.024C147.265 8.59733 147.831 8.26667 148.471 8.032C149.132 7.79733 149.857 7.68 150.647 7.68C151.713 7.68 152.609 7.89333 153.335 8.32C154.081 8.74667 154.647 9.35467 155.031 10.144C155.436 10.912 155.649 11.808 155.671 12.832H153.463C153.313 11.872 153.004 11.1787 152.535 10.752C152.087 10.304 151.436 10.08 150.583 10.08C149.708 10.08 149.036 10.272 148.567 10.656C148.097 11.04 147.863 11.552 147.863 12.192C147.863 12.6613 148.033 13.056 148.375 13.376C148.716 13.6747 149.153 13.952 149.687 14.208C150.241 14.4427 150.828 14.688 151.447 14.944C152.065 15.2 152.663 15.456 153.239 15.712C153.815 15.968 154.327 16.2667 154.775 16.608C155.223 16.9493 155.575 17.376 155.831 17.888C156.108 18.3787 156.247 18.9973 156.247 19.744C156.247 20.64 156.033 21.44 155.607 22.144C155.201 22.8267 154.593 23.36 153.783 23.744C152.993 24.128 152.023 24.32 150.871 24.32C149.825 24.32 148.929 24.192 148.183 23.936C147.457 23.6587 146.849 23.3067 146.359 22.88C145.868 22.432 145.484 21.9627 145.207 21.472C144.951 20.9813 144.78 20.5013 144.695 20.032C144.609 19.5627 144.588 19.168 144.631 18.848Z" fill="#212B36"/>
<path d="M25.175 9.472L26.455 7.296L36.759 13.248V16.16L26.455 22.112L25.175 19.904L34.231 14.688L25.175 9.472Z" fill="#EFD358"/>
</svg>
