<svg width="313" height="53" viewBox="0 0 313 53" fill="none" xmlns="http://www.w3.org/2000/svg">
<path d="M21.088 13.592L23.648 17.944L5.536 28.376L23.648 38.808L21.088 43.224L0.48 31.32V25.496L21.088 13.592Z" fill="#2065CC"/>
<path d="M43.8865 0.791996L48.4305 2.392L30.0625 52.824L25.5825 51.16L43.8865 0.791996ZM126.584 33.112C126.157 36.0987 125.133 38.68 123.512 40.856C121.89 43.032 119.821 44.7173 117.304 45.912C114.829 47.064 112.056 47.64 108.984 47.64C106.125 47.64 103.48 47.1493 101.048 46.168C98.6155 45.144 96.4822 43.6933 94.6475 41.816C92.8555 39.9387 91.4475 37.6773 90.4235 35.032C89.3995 32.3867 88.8875 29.4427 88.8875 26.2C88.8875 22.9147 89.3995 19.9707 90.4235 17.368C91.4475 14.7227 92.8555 12.4613 94.6475 10.584C96.4822 8.70667 98.6155 7.27733 101.048 6.296C103.48 5.272 106.125 4.76 108.984 4.76C112.098 4.76 114.893 5.35733 117.368 6.552C119.885 7.704 121.954 9.38933 123.576 11.608C125.197 13.784 126.221 16.3867 126.648 19.416H121.912C121.314 17.2827 120.376 15.4907 119.096 14.04C117.858 12.5893 116.365 11.48 114.616 10.712C112.866 9.944 110.989 9.56 108.984 9.56C106.381 9.56 103.928 10.2 101.624 11.48C99.3622 12.76 97.5275 14.6373 96.1195 17.112C94.7115 19.5867 94.0075 22.616 94.0075 26.2C94.0075 29.784 94.7115 32.8133 96.1195 35.288C97.5275 37.7627 99.3622 39.64 101.624 40.92C103.928 42.2 106.381 42.84 108.984 42.84C110.989 42.84 112.845 42.4773 114.552 41.752C116.301 40.984 117.794 39.8747 119.032 38.424C120.312 36.9733 121.25 35.2027 121.847 33.112H126.584ZM141.523 47.64C138.792 47.64 136.232 46.9787 133.843 45.656C131.454 44.3333 129.512 42.4347 128.019 39.96C126.568 37.4427 125.843 34.4773 125.843 31.064C125.843 27.6507 126.568 24.7067 128.019 22.232C129.512 19.7147 131.454 17.7733 133.843 16.408C136.232 15.0427 138.792 14.36 141.523 14.36C144.254 14.36 146.792 15.0427 149.139 16.408C151.528 17.7733 153.448 19.7147 154.899 22.232C156.35 24.7067 157.075 27.6507 157.075 31.064C157.075 34.4773 156.35 37.4427 154.899 39.96C153.448 42.4347 151.528 44.3333 149.139 45.656C146.792 46.9787 144.254 47.64 141.523 47.64ZM141.523 42.84C143.315 42.84 145 42.392 146.579 41.496C148.158 40.6 149.438 39.2773 150.419 37.528C151.443 35.736 151.955 33.5813 151.955 31.064C151.955 28.5467 151.443 26.4133 150.419 24.664C149.438 22.872 148.158 21.5067 146.579 20.568C145 19.6293 143.315 19.16 141.523 19.16C139.731 19.16 138.024 19.6293 136.403 20.568C134.824 21.464 133.523 22.808 132.499 24.6C131.475 26.3493 130.963 28.504 130.963 31.064C130.963 33.5813 131.454 35.736 132.435 37.528C133.459 39.2773 134.782 40.6 136.403 41.496C138.024 42.392 139.731 42.84 141.523 42.84ZM169.268 47.64C166.708 47.64 164.362 46.936 162.228 45.528C160.138 44.0773 158.474 42.1147 157.236 39.64C155.999 37.1227 155.38 34.264 155.38 31.064C155.38 27.864 155.978 25.0053 157.172 22.488C158.367 19.9707 160.01 17.9867 162.1 16.536C164.191 15.0853 166.58 14.36 169.268 14.36C171.658 14.36 173.599 14.808 175.092 15.704C176.628 16.5573 177.802 17.752 178.612 19.288C179.423 20.824 179.978 22.5947 180.276 24.6C180.618 26.6053 180.788 28.76 180.788 31.064C180.788 32.6853 180.618 34.456 180.276 36.376C179.935 38.2533 179.338 40.0667 178.484 41.816C177.674 43.5227 176.522 44.9307 175.028 46.04C173.535 47.1067 171.615 47.64 169.268 47.64ZM170.548 42.776C172.724 42.776 174.516 42.2427 175.924 41.176C177.375 40.1093 178.442 38.7013 179.124 36.952C179.807 35.16 180.148 33.1973 180.148 31.064C180.148 28.7173 179.786 26.6693 179.06 24.92C178.378 23.128 177.311 21.7413 175.86 20.76C174.452 19.736 172.682 19.224 170.548 19.224C167.348 19.224 164.874 20.3547 163.124 22.616C161.375 24.8347 160.5 27.6507 160.5 31.064C160.5 33.3253 160.927 35.352 161.78 37.144C162.676 38.8933 163.871 40.28 165.364 41.304C166.9 42.2853 168.628 42.776 170.548 42.776ZM180.148 2.2H185.268V47H180.596C180.511 46.0613 180.404 44.952 180.276 43.672C180.191 42.392 180.148 41.368 180.148 40.6V2.2ZM210.804 36.696H215.604C215.262 38.7867 214.494 40.664 213.3 42.328C212.148 43.9493 210.612 45.2507 208.692 46.232C206.814 47.1707 204.638 47.64 202.164 47.64C199.177 47.64 196.489 46.936 194.1 45.528C191.71 44.0773 189.812 42.1147 188.404 39.64C187.038 37.1227 186.356 34.264 186.356 31.064C186.356 27.864 187.017 25.0053 188.34 22.488C189.705 19.9707 191.561 17.9867 193.908 16.536C196.254 15.0853 198.9 14.36 201.844 14.36C204.958 14.36 207.582 15.064 209.716 16.472C211.892 17.8373 213.492 19.864 214.516 22.552C215.582 25.1973 216.009 28.4613 215.796 32.344H191.476C191.689 34.4347 192.265 36.2693 193.204 37.848C194.142 39.4267 195.38 40.664 196.916 41.56C198.452 42.4133 200.201 42.84 202.164 42.84C204.34 42.84 206.174 42.2853 207.668 41.176C209.204 40.024 210.249 38.5307 210.804 36.696ZM202.036 19.16C199.39 19.16 197.172 19.928 195.38 21.464C193.588 23 192.393 25.0907 191.796 27.736H210.548C210.377 24.92 209.46 22.7867 207.796 21.336C206.174 19.8853 204.254 19.16 202.036 19.16ZM229.885 47.64C227.155 47.64 224.595 46.9787 222.205 45.656C219.816 44.3333 217.875 42.4347 216.381 39.96C214.931 37.4427 214.205 34.4773 214.205 31.064C214.205 27.6507 214.931 24.7067 216.381 22.232C217.875 19.7147 219.816 17.7733 222.205 16.408C224.595 15.0427 227.155 14.36 229.885 14.36C232.616 14.36 235.155 15.0427 237.501 16.408C239.891 17.7733 241.811 19.7147 243.261 22.232C244.712 24.7067 245.437 27.6507 245.437 31.064C245.437 34.4773 244.712 37.4427 243.261 39.96C241.811 42.4347 239.891 44.3333 237.501 45.656C235.155 46.9787 232.616 47.64 229.885 47.64ZM229.885 42.84C231.677 42.84 233.363 42.392 234.941 41.496C236.52 40.6 237.8 39.2773 238.781 37.528C239.805 35.736 240.317 33.5813 240.317 31.064C240.317 28.5467 239.805 26.4133 238.781 24.664C237.8 22.872 236.52 21.5067 234.941 20.568C233.363 19.6293 231.677 19.16 229.885 19.16C228.093 19.16 226.387 19.6293 224.765 20.568C223.187 21.464 221.885 22.808 220.861 24.6C219.837 26.3493 219.325 28.504 219.325 31.064C219.325 33.5813 219.816 35.736 220.797 37.528C221.821 39.2773 223.144 40.6 224.765 41.496C226.387 42.392 228.093 42.84 229.885 42.84ZM272.671 47H267.551V15H272.671V47ZM267.871 32.088L267.935 33.88C267.892 34.392 267.764 35.1813 267.551 36.248C267.38 37.3147 267.06 38.5093 266.591 39.832C266.164 41.112 265.524 42.3493 264.671 43.544C263.86 44.7387 262.794 45.72 261.471 46.488C260.191 47.256 258.591 47.64 256.671 47.64C255.434 47.64 254.154 47.448 252.831 47.064C251.551 46.7227 250.356 46.1467 249.247 45.336C248.138 44.4827 247.242 43.3093 246.559 41.816C245.876 40.3227 245.535 38.4667 245.535 36.248V15H250.655V34.968C250.655 36.888 250.954 38.4027 251.551 39.512C252.191 40.5787 253.044 41.3467 254.111 41.816C255.178 42.2853 256.372 42.52 257.695 42.52C259.871 42.52 261.684 41.9653 263.135 40.856C264.586 39.7467 265.695 38.3813 266.463 36.76C267.231 35.1387 267.7 33.5813 267.871 32.088ZM272.333 15H291.149V19.8H272.333V15ZM279.181 6.68H284.301V47H279.181V6.68ZM289.262 36.696H293.998C294.126 38.5307 294.808 40.024 296.046 41.176C297.326 42.328 299.16 42.904 301.55 42.904C303 42.904 304.131 42.712 304.942 42.328C305.795 41.944 306.414 41.432 306.798 40.792C307.182 40.1093 307.374 39.3627 307.374 38.552C307.374 37.5707 307.118 36.8027 306.606 36.248C306.136 35.6507 305.475 35.16 304.622 34.776C303.811 34.392 302.872 34.0293 301.806 33.688C300.568 33.2187 299.288 32.728 297.966 32.216C296.686 31.6613 295.47 31.0213 294.318 30.296C293.208 29.528 292.312 28.6107 291.63 27.544C290.947 26.4347 290.606 25.112 290.606 23.576C290.606 22.296 290.862 21.1013 291.374 19.992C291.886 18.84 292.611 17.8587 293.55 17.048C294.531 16.1947 295.662 15.5333 296.942 15.064C298.264 14.5947 299.715 14.36 301.294 14.36C303.427 14.36 305.219 14.7867 306.67 15.64C308.163 16.4933 309.294 17.7093 310.062 19.288C310.872 20.824 311.299 22.616 311.342 24.664H306.926C306.627 22.744 306.008 21.3573 305.07 20.504C304.174 19.608 302.872 19.16 301.166 19.16C299.416 19.16 298.072 19.544 297.134 20.312C296.195 21.08 295.726 22.104 295.726 23.384C295.726 24.3227 296.067 25.112 296.75 25.752C297.432 26.3493 298.307 26.904 299.374 27.416C300.483 27.8853 301.656 28.376 302.894 28.888C304.131 29.4 305.326 29.912 306.478 30.424C307.63 30.936 308.654 31.5333 309.55 32.216C310.446 32.8987 311.15 33.752 311.662 34.776C312.216 35.7573 312.494 36.9947 312.494 38.488C312.494 40.28 312.067 41.88 311.214 43.288C310.403 44.6533 309.187 45.72 307.566 46.488C305.987 47.256 304.046 47.64 301.742 47.64C299.651 47.64 297.859 47.384 296.366 46.872C294.915 46.3173 293.699 45.6133 292.718 44.76C291.736 43.864 290.968 42.9253 290.414 41.944C289.902 40.9627 289.56 40.0027 289.39 39.064C289.219 38.1253 289.176 37.336 289.262 36.696Z" fill="white"/>
<path d="M50.35 17.944L52.91 13.592L73.518 25.496V31.32L52.91 43.224L50.35 38.808L68.462 28.376L50.35 17.944Z" fill="#EFD358"/>
</svg>
