<svg width="60" height="60" viewBox="0 0 60 60" fill="none" xmlns="http://www.w3.org/2000/svg">
<g clip-path="url(#clip0_44_233)">
<path d="M60 37.2414H0V5.68971C0 3.69002 1.62105 2.06897 3.62074 2.06897H56.3794C58.3791 2.06897 60.0001 3.69002 60.0001 5.68971V37.2414H60Z" fill="#38454F"/>
<path d="M42.4138 57.9311H17.5862C17.5862 55.6459 19.4389 53.7932 21.7241 53.7932H38.2758C40.5611 53.7931 42.4138 55.6459 42.4138 57.9311Z" fill="#E8EDEE"/>
<path d="M37.2414 53.7931H22.7586L24.8276 45.5173H35.1724L37.2414 53.7931Z" fill="#B0B6BB"/>
<path d="M56.3793 45.5173H3.62074C1.62105 45.5173 0 43.8962 0 41.8966V37.2414H60V41.8966C60 43.8962 58.3789 45.5173 56.3793 45.5173Z" fill="#E8EDEE"/>
<path d="M34.1379 34.1379C33.5658 34.1379 33.1034 33.6744 33.1034 33.1033V30C33.1034 29.4289 33.5658 28.9655 34.1379 28.9655C34.71 28.9655 35.1724 29.4289 35.1724 30V33.1035C35.1724 33.6745 34.71 34.1379 34.1379 34.1379Z" fill="#25AE88"/>
<path d="M38.2759 34.1379C37.7038 34.1379 37.2414 33.6744 37.2414 33.1034V25.8621C37.2414 25.2911 37.7038 24.8276 38.2759 24.8276C38.848 24.8276 39.3104 25.2911 39.3104 25.8621V33.1035C39.3103 33.6745 38.8479 34.1379 38.2759 34.1379Z" fill="#25AE88"/>
<path d="M42.4138 34.1379C41.8417 34.1379 41.3793 33.6744 41.3793 33.1034V27.931C41.3793 27.3599 41.8417 26.8964 42.4138 26.8964C42.9859 26.8964 43.4483 27.3599 43.4483 27.931V33.1034C43.4483 33.6745 42.9859 34.1379 42.4138 34.1379Z" fill="#25AE88"/>
<path d="M46.5517 34.1379C45.9796 34.1379 45.5172 33.6744 45.5172 33.1034V20.6897C45.5172 20.1186 45.9796 19.6552 46.5517 19.6552C47.1238 19.6552 47.5862 20.1186 47.5862 20.6897V33.1035C47.5862 33.6745 47.1238 34.1379 46.5517 34.1379Z" fill="#25AE88"/>
<path d="M50.6897 34.1379C50.1176 34.1379 49.6552 33.6744 49.6552 33.1033V24.8274C49.6552 24.2564 50.1176 23.7929 50.6897 23.7929C51.2618 23.7929 51.7242 24.2564 51.7242 24.8274V33.1033C51.7241 33.6745 51.2617 34.1379 50.6897 34.1379Z" fill="#25AE88"/>
<path d="M27.9311 19.1379C27.9311 25.1369 23.068 30 17.0689 30C11.0699 30 6.20683 25.137 6.20683 19.1379C6.20683 13.1389 11.0699 8.27582 17.0689 8.27582C23.068 8.27582 27.9311 13.139 27.9311 19.1379Z" fill="#DD691D"/>
<path d="M16.5659 8.28731C16.5607 8.29246 16.5575 8.29657 16.5513 8.30184V19.617C16.5513 19.6387 16.5689 19.6553 16.5897 19.6553H27.9048C27.91 19.6502 27.9141 19.647 27.9193 19.6408C28.208 13.2446 22.9621 7.99868 16.5659 8.28731Z" fill="#ECBA16"/>
<path d="M45.5173 13.4483H37.2414C36.6693 13.4483 36.2068 12.9849 36.2068 12.4138C36.2068 11.8427 36.6693 11.3793 37.2414 11.3793H45.5173C46.0894 11.3793 46.5518 11.8427 46.5518 12.4138C46.5517 12.9849 46.0893 13.4483 45.5173 13.4483Z" fill="#DD691D"/>
<path d="M50.6897 13.4483C50.4207 13.4483 50.1507 13.3345 49.9552 13.1483C49.9138 13.0966 49.8621 13.0448 49.8311 12.9932C49.7897 12.9311 49.7586 12.8691 49.738 12.807C49.7069 12.7448 49.6863 12.6829 49.6759 12.6207C49.6656 12.5483 49.6552 12.4759 49.6552 12.4138C49.6552 12.3517 49.6655 12.2793 49.6759 12.2068C49.6862 12.1447 49.7069 12.0827 49.738 12.0206C49.7587 11.9585 49.7897 11.8965 49.8311 11.8344C49.8621 11.7827 49.9138 11.7309 49.9552 11.6793C50.3379 11.2965 51.031 11.2965 51.4241 11.6793C51.6103 11.8758 51.7241 12.1344 51.7241 12.4138C51.7241 12.6931 51.6103 12.9517 51.4241 13.1483C51.2276 13.3345 50.9586 13.4483 50.6897 13.4483Z" fill="#DD691D"/>
<path d="M50.6897 8.27591H47.5862C47.0141 8.27591 46.5517 7.81243 46.5517 7.24138C46.5517 6.67032 47.0141 6.20685 47.5862 6.20685H50.6897C51.2618 6.20685 51.7242 6.67032 51.7242 7.24138C51.7242 7.81243 51.2617 8.27591 50.6897 8.27591Z" fill="#DD691D"/>
<path d="M39.3103 8.27591H37.2414C36.6693 8.27591 36.2068 7.81243 36.2068 7.24138C36.2068 6.67032 36.6693 6.20685 37.2414 6.20685H39.3103C39.8824 6.20685 40.3448 6.67032 40.3448 7.24138C40.3448 7.81243 39.8824 8.27591 39.3103 8.27591Z" fill="#DD691D"/>
<path d="M43.4483 8.27592C43.1794 8.27592 42.9094 8.16214 42.7138 7.97592C42.5265 7.7794 42.4138 7.51046 42.4138 7.24139C42.4138 6.97245 42.5265 6.7035 42.7138 6.50686C42.8173 6.41382 42.9207 6.34139 43.0552 6.2896C43.4379 6.12413 43.893 6.21717 44.1827 6.50686C44.3689 6.70339 44.4827 6.97233 44.4827 7.24139C44.4827 7.51034 44.3689 7.77928 44.1827 7.97592C43.9862 8.16214 43.7173 8.27592 43.4483 8.27592Z" fill="#DD691D"/>
</g>
<defs>
<clipPath id="clip0_44_233">
<rect width="60" height="60" fill="white"/>
</clipPath>
</defs>
</svg>
