<svg width="60" height="60" viewBox="0 0 60 60" fill="none" xmlns="http://www.w3.org/2000/svg">
<path d="M23.4375 15C24.55 15 25.6376 14.6701 26.5626 14.052C27.4876 13.4339 28.2086 12.5554 28.6343 11.5276C29.0601 10.4998 29.1715 9.36876 28.9544 8.27762C28.7374 7.18648 28.2016 6.1842 27.415 5.39753C26.6283 4.61086 25.626 4.07513 24.5349 3.85809C23.4437 3.64104 22.3127 3.75244 21.2849 4.17818C20.2571 4.60392 19.3786 5.32489 18.7605 6.24992C18.1424 7.17495 17.8125 8.26248 17.8125 9.375C17.8125 10.8668 18.4051 12.2976 19.46 13.3525C20.5149 14.4074 21.9457 15 23.4375 15ZM23.4375 5.625C24.1792 5.625 24.9042 5.84494 25.5209 6.25699C26.1376 6.66905 26.6182 7.25472 26.902 7.93994C27.1859 8.62516 27.2601 9.37916 27.1154 10.1066C26.9708 10.834 26.6136 11.5022 26.0891 12.0267C25.5647 12.5511 24.8965 12.9083 24.1691 13.0529C23.4417 13.1976 22.6877 13.1234 22.0024 12.8396C21.3172 12.5557 20.7315 12.0751 20.3195 11.4584C19.9074 10.8417 19.6875 10.1167 19.6875 9.375C19.6875 8.38044 20.0826 7.42661 20.7859 6.72335C21.4891 6.02009 22.4429 5.625 23.4375 5.625Z" fill="url(#paint0_linear_44_268)"/>
<path d="M18.75 46.875H20.625V52.5H18.75V46.875Z" fill="url(#paint1_linear_44_268)"/>
<path d="M23.4375 11.25C24.473 11.25 25.3125 10.4105 25.3125 9.375C25.3125 8.33947 24.473 7.5 23.4375 7.5C22.402 7.5 21.5625 8.33947 21.5625 9.375C21.5625 10.4105 22.402 11.25 23.4375 11.25Z" fill="url(#paint2_linear_44_268)"/>
<path d="M22.5 48.75H26.25V50.625H22.5V48.75Z" fill="url(#paint3_linear_44_268)"/>
<path d="M26.9813 45L26.5125 46.875H33.4875L33.0188 45H26.9813Z" fill="url(#paint4_linear_44_268)"/>
<path d="M50.625 20.625H52.5V22.5H50.625V20.625Z" fill="url(#paint5_linear_44_268)"/>
<path d="M39.375 46.875H41.25V52.5H39.375V46.875Z" fill="url(#paint6_linear_44_268)"/>
<path d="M45 24.375H52.5V26.25H45V24.375Z" fill="url(#paint7_linear_44_268)"/>
<path d="M39.375 22.5H35.4187L34.6594 25.5375C34.6091 25.7408 34.4923 25.9213 34.3275 26.0505C34.1627 26.1796 33.9594 26.2498 33.75 26.25H26.25C26.0406 26.2498 25.8373 26.1796 25.6725 26.0505C25.5077 25.9213 25.3909 25.7408 25.3406 25.5375L24.5812 22.5H20.625V38.0531L21.9469 39.375C22.1219 39.5478 22.261 39.7536 22.3559 39.9805C22.4509 40.2074 22.4998 40.4509 22.5 40.6969V46.875H24.5812L25.1625 44.5406C25.2636 44.1352 25.4977 43.7754 25.8274 43.5188C26.1572 43.2621 26.5634 43.1235 26.9813 43.125H33.0188C33.4366 43.1235 33.8428 43.2621 34.1726 43.5188C34.5023 43.7754 34.7364 44.1352 34.8375 44.5406L35.4187 46.875H37.5V40.6969C37.5002 40.4509 37.5491 40.2074 37.6441 39.9805C37.739 39.7536 37.8781 39.5478 38.0531 39.375L39.375 38.0531V22.5ZM29.0625 28.125H30.9375V34.6875H29.0625V28.125ZM30 41.25C28.5554 41.2499 27.1512 40.7732 26.0052 39.8938C24.8591 39.0144 24.0353 37.7814 23.6614 36.386C23.2875 34.9907 23.3845 33.5109 23.9373 32.1763C24.49 30.8417 25.4677 29.7267 26.7188 29.0044L27.6562 30.6272C26.7626 31.1431 26.0642 31.9395 25.6693 32.8929C25.2744 33.8462 25.2052 34.9032 25.4722 35.8999C25.7393 36.8966 26.3278 37.7774 27.1464 38.4055C27.9651 39.0337 28.9681 39.3742 30 39.3742C31.0319 39.3742 32.0349 39.0337 32.8536 38.4055C33.6722 37.7774 34.2607 36.8966 34.5278 35.8999C34.7948 34.9032 34.7256 33.8462 34.3307 32.8929C33.9358 31.9395 33.2374 31.1431 32.3438 30.6272L33.2812 29.0044C34.5323 29.7267 35.51 30.8417 36.0627 32.1763C36.6155 33.5109 36.7125 34.9907 36.3386 36.386C35.9647 37.7814 35.1409 39.0144 33.9948 39.8938C32.8488 40.7732 31.4446 41.2499 30 41.25Z" fill="url(#paint8_linear_44_268)"/>
<path d="M33.75 48.75H37.5V50.625H33.75V48.75Z" fill="url(#paint9_linear_44_268)"/>
<path d="M41.25 22.5H43.125V28.125H41.25V22.5Z" fill="url(#paint10_linear_44_268)"/>
<path d="M7.5 20.625H9.375V22.5H7.5V20.625Z" fill="url(#paint11_linear_44_268)"/>
<path d="M12.1875 14.0625V18.75H4.6875V14.0625C4.68973 13.3173 4.98676 12.6032 5.51372 12.0762C6.04069 11.5493 6.75476 11.2522 7.5 11.25V13.125C7.25136 13.125 7.0129 13.2238 6.83709 13.3996C6.66127 13.5754 6.5625 13.8139 6.5625 14.0625V16.875H10.3125V14.0625C10.3125 13.8139 10.2137 13.5754 10.0379 13.3996C9.8621 13.2238 9.62364 13.125 9.375 13.125V11.25C10.1202 11.2522 10.8343 11.5493 11.3613 12.0762C11.8882 12.6032 12.1853 13.3173 12.1875 14.0625Z" fill="url(#paint12_linear_44_268)"/>
<path d="M26.5031 16.2188L26.8312 16.875H33.1687L33.4969 16.2188C32.0152 15.5472 30.7891 14.4164 30 12.9938C29.2109 14.4164 27.9848 15.5472 26.5031 16.2188Z" fill="url(#paint13_linear_44_268)"/>
<path d="M36.5625 11.25C37.598 11.25 38.4375 10.4105 38.4375 9.375C38.4375 8.33947 37.598 7.5 36.5625 7.5C35.527 7.5 34.6875 8.33947 34.6875 9.375C34.6875 10.4105 35.527 11.25 36.5625 11.25Z" fill="url(#paint14_linear_44_268)"/>
<path d="M15.9375 43.125H10.3125C10.0639 43.125 9.8254 43.2238 9.64959 43.3996C9.47377 43.5754 9.375 43.8139 9.375 44.0625V44.2313L12.4219 45.0281L11.9531 46.8469L9.375 46.1719V47.9813L12.4219 48.7781L11.9531 50.5969L9.375 49.9219V51.7313L12.4219 52.5281L11.9531 54.3469L9.375 53.6719V55.3125C9.375 55.5611 9.47377 55.7996 9.64959 55.9754C9.8254 56.1512 10.0639 56.25 10.3125 56.25H15.9375C16.1861 56.25 16.4246 56.1512 16.6004 55.9754C16.7762 55.7996 16.875 55.5611 16.875 55.3125V53.6719L14.2969 54.3469L13.8281 52.5281L16.875 51.7313V49.9219L14.2969 50.5969L13.8281 48.7781L16.875 47.9813V46.1719L14.2969 46.8469L13.8281 45.0281L16.875 44.2313V44.0625C16.875 43.8139 16.7762 43.5754 16.6004 43.3996C16.4246 43.2238 16.1861 43.125 15.9375 43.125Z" fill="url(#paint15_linear_44_268)"/>
<path d="M49.6875 43.125H44.0625C43.8139 43.125 43.5754 43.2238 43.3996 43.3996C43.2238 43.5754 43.125 43.8139 43.125 44.0625V44.2313L46.1719 45.0281L45.7031 46.8469L43.125 46.1719V47.9813L46.1719 48.7781L45.7031 50.5969L43.125 49.9219V51.7313L46.1719 52.5281L45.7031 54.3469L43.125 53.6719V55.3125C43.125 55.5611 43.2238 55.7996 43.3996 55.9754C43.5754 56.1512 43.8139 56.25 44.0625 56.25H49.6875C49.9361 56.25 50.1746 56.1512 50.3504 55.9754C50.5262 55.7996 50.625 55.5611 50.625 55.3125V53.6719L48.0469 54.3469L47.5781 52.5281L50.625 51.7313V49.9219L48.0469 50.5969L47.5781 48.7781L50.625 47.9813V46.1719L48.0469 46.8469L47.5781 45.0281L50.625 44.2313V44.0625C50.625 43.8139 50.5262 43.5754 50.3504 43.3996C50.1746 43.2238 49.9361 43.125 49.6875 43.125Z" fill="url(#paint16_linear_44_268)"/>
<path d="M7.5 24.375H15V26.25H7.5V24.375Z" fill="url(#paint17_linear_44_268)"/>
<path d="M16.875 22.5H18.75V28.125H16.875V22.5Z" fill="url(#paint18_linear_44_268)"/>
<path d="M36.5625 15C37.675 15 38.7626 14.6701 39.6876 14.052C40.6126 13.4339 41.3336 12.5554 41.7593 11.5276C42.1851 10.4998 42.2965 9.36876 42.0794 8.27762C41.8624 7.18648 41.3266 6.1842 40.54 5.39753C39.7533 4.61086 38.751 4.07513 37.6599 3.85809C36.5687 3.64104 35.4377 3.75244 34.4099 4.17818C33.3821 4.60392 32.5036 5.32489 31.8855 6.24992C31.2674 7.17495 30.9375 8.26248 30.9375 9.375C30.9375 10.8668 31.5301 12.2976 32.585 13.3525C33.6399 14.4074 35.0707 15 36.5625 15ZM36.5625 5.625C37.3042 5.625 38.0292 5.84494 38.6459 6.25699C39.2626 6.66905 39.7432 7.25472 40.027 7.93994C40.3109 8.62516 40.3851 9.37916 40.2404 10.1066C40.0958 10.834 39.7386 11.5022 39.2141 12.0267C38.6897 12.5511 38.0215 12.9083 37.2941 13.0529C36.5667 13.1976 35.8127 13.1234 35.1274 12.8396C34.4422 12.5557 33.8565 12.0751 33.4445 11.4584C33.0324 10.8417 32.8125 10.1167 32.8125 9.375C32.8125 8.38044 33.2076 7.42661 33.9109 6.72335C34.6141 6.02009 35.5679 5.625 36.5625 5.625Z" fill="url(#paint19_linear_44_268)"/>
<path d="M29.0625 18.75H30.9375V20.625H29.0625V18.75Z" fill="url(#paint20_linear_44_268)"/>
<path d="M26.9813 24.375H33.0188L33.4875 22.5H26.5125L26.9813 24.375Z" fill="url(#paint21_linear_44_268)"/>
<path d="M55.3125 14.0625V18.75H47.8125V14.0625C47.8147 13.3173 48.1118 12.6032 48.6387 12.0762C49.1657 11.5493 49.8798 11.2522 50.625 11.25V13.125C50.3764 13.125 50.1379 13.2238 49.9621 13.3996C49.7863 13.5754 49.6875 13.8139 49.6875 14.0625V16.875H53.4375V14.0625C53.4375 13.8139 53.3387 13.5754 53.1629 13.3996C52.9871 13.2238 52.7486 13.125 52.5 13.125V11.25C53.2452 11.2522 53.9593 11.5493 54.4863 12.0762C55.0132 12.6032 55.3103 13.3173 55.3125 14.0625Z" fill="url(#paint22_linear_44_268)"/>
<defs>
<linearGradient id="paint0_linear_44_268" x1="23.4375" y1="59.1713" x2="23.4375" y2="-2.82469" gradientUnits="userSpaceOnUse">
<stop stop-color="#6713D2"/>
<stop offset="1" stop-color="#CC208E"/>
</linearGradient>
<linearGradient id="paint1_linear_44_268" x1="19.6875" y1="59.1712" x2="19.6875" y2="-2.82469" gradientUnits="userSpaceOnUse">
<stop stop-color="#6713D2"/>
<stop offset="1" stop-color="#CC208E"/>
</linearGradient>
<linearGradient id="paint2_linear_44_268" x1="23.4375" y1="59.1713" x2="23.4375" y2="-2.82469" gradientUnits="userSpaceOnUse">
<stop stop-color="#6713D2"/>
<stop offset="1" stop-color="#CC208E"/>
</linearGradient>
<linearGradient id="paint3_linear_44_268" x1="24.375" y1="59.1713" x2="24.375" y2="-2.82469" gradientUnits="userSpaceOnUse">
<stop stop-color="#6713D2"/>
<stop offset="1" stop-color="#CC208E"/>
</linearGradient>
<linearGradient id="paint4_linear_44_268" x1="30" y1="59.1713" x2="30" y2="-2.82469" gradientUnits="userSpaceOnUse">
<stop stop-color="#6713D2"/>
<stop offset="1" stop-color="#CC208E"/>
</linearGradient>
<linearGradient id="paint5_linear_44_268" x1="51.5625" y1="59.1713" x2="51.5625" y2="-2.82469" gradientUnits="userSpaceOnUse">
<stop stop-color="#6713D2"/>
<stop offset="1" stop-color="#CC208E"/>
</linearGradient>
<linearGradient id="paint6_linear_44_268" x1="40.3125" y1="59.1712" x2="40.3125" y2="-2.82469" gradientUnits="userSpaceOnUse">
<stop stop-color="#6713D2"/>
<stop offset="1" stop-color="#CC208E"/>
</linearGradient>
<linearGradient id="paint7_linear_44_268" x1="48.75" y1="59.1712" x2="48.75" y2="-2.82469" gradientUnits="userSpaceOnUse">
<stop stop-color="#6713D2"/>
<stop offset="1" stop-color="#CC208E"/>
</linearGradient>
<linearGradient id="paint8_linear_44_268" x1="30" y1="59.1713" x2="30" y2="-2.82469" gradientUnits="userSpaceOnUse">
<stop stop-color="#6713D2"/>
<stop offset="1" stop-color="#CC208E"/>
</linearGradient>
<linearGradient id="paint9_linear_44_268" x1="35.625" y1="59.1713" x2="35.625" y2="-2.82469" gradientUnits="userSpaceOnUse">
<stop stop-color="#6713D2"/>
<stop offset="1" stop-color="#CC208E"/>
</linearGradient>
<linearGradient id="paint10_linear_44_268" x1="42.1875" y1="59.1712" x2="42.1875" y2="-2.82469" gradientUnits="userSpaceOnUse">
<stop stop-color="#6713D2"/>
<stop offset="1" stop-color="#CC208E"/>
</linearGradient>
<linearGradient id="paint11_linear_44_268" x1="8.4375" y1="59.1713" x2="8.4375" y2="-2.82469" gradientUnits="userSpaceOnUse">
<stop stop-color="#6713D2"/>
<stop offset="1" stop-color="#CC208E"/>
</linearGradient>
<linearGradient id="paint12_linear_44_268" x1="8.4375" y1="59.1712" x2="8.4375" y2="-2.82469" gradientUnits="userSpaceOnUse">
<stop stop-color="#6713D2"/>
<stop offset="1" stop-color="#CC208E"/>
</linearGradient>
<linearGradient id="paint13_linear_44_268" x1="30" y1="59.1713" x2="30" y2="-2.82466" gradientUnits="userSpaceOnUse">
<stop stop-color="#6713D2"/>
<stop offset="1" stop-color="#CC208E"/>
</linearGradient>
<linearGradient id="paint14_linear_44_268" x1="36.5625" y1="59.1713" x2="36.5625" y2="-2.82469" gradientUnits="userSpaceOnUse">
<stop stop-color="#6713D2"/>
<stop offset="1" stop-color="#CC208E"/>
</linearGradient>
<linearGradient id="paint15_linear_44_268" x1="13.125" y1="59.1713" x2="13.125" y2="-2.82469" gradientUnits="userSpaceOnUse">
<stop stop-color="#6713D2"/>
<stop offset="1" stop-color="#CC208E"/>
</linearGradient>
<linearGradient id="paint16_linear_44_268" x1="46.875" y1="59.1713" x2="46.875" y2="-2.82469" gradientUnits="userSpaceOnUse">
<stop stop-color="#6713D2"/>
<stop offset="1" stop-color="#CC208E"/>
</linearGradient>
<linearGradient id="paint17_linear_44_268" x1="11.25" y1="59.1712" x2="11.25" y2="-2.82469" gradientUnits="userSpaceOnUse">
<stop stop-color="#6713D2"/>
<stop offset="1" stop-color="#CC208E"/>
</linearGradient>
<linearGradient id="paint18_linear_44_268" x1="17.8125" y1="59.1712" x2="17.8125" y2="-2.82469" gradientUnits="userSpaceOnUse">
<stop stop-color="#6713D2"/>
<stop offset="1" stop-color="#CC208E"/>
</linearGradient>
<linearGradient id="paint19_linear_44_268" x1="36.5625" y1="59.1713" x2="36.5625" y2="-2.82469" gradientUnits="userSpaceOnUse">
<stop stop-color="#6713D2"/>
<stop offset="1" stop-color="#CC208E"/>
</linearGradient>
<linearGradient id="paint20_linear_44_268" x1="30" y1="59.1712" x2="30" y2="-2.82469" gradientUnits="userSpaceOnUse">
<stop stop-color="#6713D2"/>
<stop offset="1" stop-color="#CC208E"/>
</linearGradient>
<linearGradient id="paint21_linear_44_268" x1="30" y1="59.1713" x2="30" y2="-2.82469" gradientUnits="userSpaceOnUse">
<stop stop-color="#6713D2"/>
<stop offset="1" stop-color="#CC208E"/>
</linearGradient>
<linearGradient id="paint22_linear_44_268" x1="51.5625" y1="59.1712" x2="51.5625" y2="-2.82469" gradientUnits="userSpaceOnUse">
<stop stop-color="#6713D2"/>
<stop offset="1" stop-color="#CC208E"/>
</linearGradient>
</defs>
</svg>
