<svg width="60" height="60" viewBox="0 0 60 60" fill="none" xmlns="http://www.w3.org/2000/svg">
<path d="M29.9437 41.0906C29.9916 41.1277 30.0455 41.1563 30.1031 41.175C30.1589 41.2036 30.2191 41.2226 30.2812 41.2313C30.5299 41.2313 30.7683 41.1325 30.9441 40.9567C31.12 40.7809 31.2187 40.5424 31.2187 40.2938C31.2187 40.0451 31.12 39.8067 30.9441 39.6308C30.7683 39.455 30.5299 39.3563 30.2812 39.3563C30.2191 39.365 30.1589 39.384 30.1031 39.4125C30.0455 39.4312 29.9916 39.4598 29.9437 39.4969L29.7937 39.6094C29.7059 39.6965 29.6361 39.8002 29.5885 39.9145C29.5409 40.0287 29.5164 40.1513 29.5164 40.275C29.5164 40.3988 29.5409 40.5213 29.5885 40.6356C29.6361 40.7498 29.7059 40.8535 29.7937 40.9406L29.9437 41.0906Z" fill="url(#paint0_linear_44_228)"/>
<path d="M52.5656 34.2094C51.8634 34.2128 51.1812 34.4441 50.6216 34.8684C50.0621 35.2927 49.6553 35.8872 49.4625 36.5625H47.0531V32.8125H53.3719C53.5084 32.8103 53.6428 32.7783 53.7656 32.7187C59.5312 26.3344 54.7031 15.5437 46.2656 15.0937C44.492 12.9068 42.077 11.3315 39.3607 10.5898C36.6444 9.84812 33.7639 9.97737 31.125 10.9594C26.7375 0.196861 11.325 2.86874 10.6125 14.4375C8.81706 14.9754 7.18992 15.9656 5.88712 17.3131C4.58431 18.6606 3.64952 20.3201 3.17239 22.1327C2.69525 23.9452 2.69177 25.85 3.16228 27.6642C3.63279 29.4785 4.5615 31.1415 5.85937 32.4937C5.94723 32.5937 6.05537 32.6739 6.1766 32.7288C6.29784 32.7838 6.42939 32.8123 6.5625 32.8125H12.975V36.5625H10.5375C10.3125 35.8149 9.8262 35.1732 9.16732 34.7544C8.50845 34.3357 7.72095 34.1678 6.94859 34.2816C6.17622 34.3953 5.47051 34.7829 4.96026 35.3738C4.45001 35.9646 4.16926 36.7193 4.16926 37.5C4.16926 38.2807 4.45001 39.0353 4.96026 39.6262C5.47051 40.2171 6.17622 40.6047 6.94859 40.7184C7.72095 40.8321 8.50845 40.6643 9.16732 40.2455C9.8262 39.8268 10.3125 39.1851 10.5375 38.4375H13.8562C13.9828 38.4407 14.1086 38.4183 14.2262 38.3716C14.3439 38.3248 14.4508 38.2548 14.5406 38.1656C14.6286 38.0769 14.698 37.9715 14.7447 37.8556C14.7914 37.7396 14.8145 37.6156 14.8125 37.4906V32.8125H20.3062V45H15.15C14.925 44.2524 14.4387 43.6107 13.7798 43.1919C13.1209 42.7732 12.3334 42.6053 11.5611 42.7191C10.7887 42.8328 10.083 43.2204 9.57276 43.8113C9.06251 44.4021 8.78176 45.1568 8.78176 45.9375C8.78176 46.7182 9.06251 47.4728 9.57276 48.0637C10.083 48.6546 10.7887 49.0422 11.5611 49.1559C12.3334 49.2696 13.1209 49.1018 13.7798 48.683C14.4387 48.2643 14.925 47.6226 15.15 46.875H21.2531C21.5018 46.875 21.7402 46.7762 21.916 46.6004C22.0919 46.4246 22.1906 46.1861 22.1906 45.9375V32.8125H29.5219V37.5C29.5219 37.7486 29.6206 37.9871 29.7965 38.1629C29.9723 38.3387 30.2107 38.4375 30.4594 38.4375C30.708 38.4375 30.9465 38.3387 31.1223 38.1629C31.2981 37.9871 31.3969 37.7486 31.3969 37.5V32.8125H37.8094V45.9375C37.8094 46.1861 37.9081 46.4246 38.084 46.6004C38.2598 46.7762 38.4982 46.875 38.7469 46.875H44.8125C45.0375 47.6226 45.5238 48.2643 46.1827 48.683C46.8416 49.1018 47.629 49.2696 48.4014 49.1559C49.1738 49.0422 49.8795 48.6546 50.3897 48.0637C50.9 47.4728 51.1807 46.7182 51.1807 45.9375C51.1807 45.1568 50.9 44.4021 50.3897 43.8113C49.8795 43.2204 49.1738 42.8328 48.4014 42.7191C47.629 42.6053 46.8416 42.7732 46.1827 43.1919C45.5238 43.6107 45.0375 44.2524 44.8125 45H39.6844V32.8125H45.1781V37.5C45.1762 37.6249 45.1992 37.749 45.2459 37.8649C45.2926 37.9809 45.362 38.0863 45.45 38.175C45.5398 38.2642 45.6468 38.3342 45.7644 38.3809C45.882 38.4277 46.0079 38.4501 46.1344 38.4469H49.4531C49.6285 39.0233 49.9605 39.5397 50.4122 39.9385C50.8639 40.3374 51.4174 40.6029 52.0111 40.7055C52.6049 40.8082 53.2155 40.7439 53.7748 40.5199C54.3342 40.2959 54.8203 39.921 55.1791 39.4369C55.5378 38.9528 55.7551 38.3786 55.8066 37.7782C55.8581 37.1779 55.7419 36.5751 55.4709 36.0369C55.2 35.4987 54.7848 35.0464 54.2718 34.7304C53.7589 34.4143 53.1682 34.2469 52.5656 34.2469V34.2094ZM7.43437 38.8969C7.06141 38.8969 6.70373 38.7487 6.44001 38.485C6.17628 38.2213 6.02812 37.8636 6.02812 37.4906C6.02812 37.1177 6.17628 36.76 6.44001 36.4962C6.70373 36.2325 7.06141 36.0844 7.43437 36.0844C7.80609 36.0844 8.16258 36.232 8.42543 36.4949C8.68827 36.7577 8.83594 37.1142 8.83594 37.4859C8.83594 37.8576 8.68827 38.2141 8.42543 38.477C8.16258 38.7398 7.80609 38.8875 7.43437 38.8875V38.8969ZM12.0375 47.3344C11.6645 47.3344 11.3069 47.1862 11.0431 46.9225C10.7794 46.6588 10.6312 46.3011 10.6312 45.9281C10.6312 45.5552 10.7794 45.1975 11.0431 44.9337C11.3069 44.67 11.6645 44.5219 12.0375 44.5219C12.408 44.5219 12.7633 44.669 13.0252 44.931C13.2872 45.193 13.4344 45.5483 13.4344 45.9187C13.4344 46.2892 13.2872 46.6445 13.0252 46.9065C12.7633 47.1684 12.408 47.3156 12.0375 47.3156V47.3344ZM47.9156 44.5219C48.2886 44.5219 48.6463 44.67 48.91 44.9337C49.1737 45.1975 49.3219 45.5552 49.3219 45.9281C49.3219 46.3011 49.1737 46.6588 48.91 46.9225C48.6463 47.1862 48.2886 47.3344 47.9156 47.3344C47.5452 47.3344 47.1898 47.1872 46.9279 46.9252C46.6659 46.6633 46.5187 46.308 46.5187 45.9375C46.5187 45.567 46.6659 45.2117 46.9279 44.9497C47.1898 44.6878 47.5452 44.5406 47.9156 44.5406V44.5219ZM4.6875 24.9C4.67626 22.8484 5.36921 20.8552 6.6506 19.253C7.932 17.6508 9.72427 16.5368 11.7281 16.0969C11.9716 16.0492 12.1862 15.907 12.325 15.7014C12.4639 15.4958 12.5155 15.2436 12.4688 15C12.4186 12.8597 13.1526 10.7748 14.5326 9.13801C15.9126 7.50121 17.8433 6.42538 19.9614 6.11309C22.0794 5.80081 24.2385 6.27361 26.0322 7.44247C27.8259 8.61134 29.1303 10.3956 29.7 12.4594C29.7382 12.5892 29.8041 12.7092 29.8931 12.8112C29.9821 12.9131 30.0921 12.9946 30.2156 13.05C30.339 13.1071 30.4734 13.1367 30.6094 13.1367C30.7454 13.1367 30.8797 13.1071 31.0031 13.05C32.5233 12.3281 34.1859 11.9565 35.8687 11.9625C37.6556 11.9625 39.4181 12.3774 41.0173 13.1746C42.6165 13.9717 44.0088 15.1294 45.0844 16.5562C45.1698 16.6672 45.2789 16.7577 45.4038 16.8209C45.5288 16.8842 45.6663 16.9187 45.8062 16.9219C52.6406 17.0062 56.7937 25.2656 52.8844 30.9187H6.94687C5.47613 29.2605 4.6713 27.1164 4.6875 24.9ZM52.5656 38.8594C52.1927 38.8594 51.835 38.7112 51.5713 38.4475C51.3075 38.1838 51.1594 37.8261 51.1594 37.4531C51.1594 37.0802 51.3075 36.7225 51.5713 36.4587C51.835 36.195 52.1927 36.0469 52.5656 36.0469C52.9386 36.0469 53.2963 36.195 53.56 36.4587C53.8237 36.7225 53.9719 37.0802 53.9719 37.4531C53.9719 37.8261 53.8237 38.1838 53.56 38.4475C53.2963 38.7112 52.9386 38.8594 52.5656 38.8594Z" fill="url(#paint1_linear_44_228)"/>
<path d="M39.9563 48.3C39.2564 48.3012 38.5755 48.528 38.0148 48.9469C37.4541 49.3657 37.0434 49.9542 36.8438 50.625H31.3969V43.125C31.3969 42.8764 31.2981 42.6379 31.1223 42.4621C30.9465 42.2863 30.708 42.1875 30.4594 42.1875C30.2107 42.1875 29.9723 42.2863 29.7965 42.4621C29.6207 42.6379 29.5219 42.8764 29.5219 43.125V50.625H24.375C24.15 49.8774 23.6637 49.2357 23.0048 48.817C22.346 48.3982 21.5585 48.2304 20.7861 48.3441C20.0137 48.4578 19.308 48.8454 18.7978 49.4363C18.2875 50.0272 18.0068 50.7818 18.0068 51.5625C18.0068 52.3432 18.2875 53.0978 18.7978 53.6887C19.308 54.2796 20.0137 54.6672 20.7861 54.7809C21.5585 54.8946 22.346 54.7268 23.0048 54.308C23.6637 53.8893 24.15 53.2476 24.375 52.5H36.8531C37.0286 53.0768 37.361 53.5935 37.8131 53.9924C38.2652 54.3914 38.8193 54.6568 39.4135 54.7591C40.0077 54.8614 40.6186 54.7965 41.1781 54.5718C41.7376 54.347 42.2236 53.9712 42.5819 53.4862C42.9401 53.0013 43.1566 52.4263 43.2071 51.8255C43.2576 51.2247 43.1401 50.6217 42.8678 50.0838C42.5955 49.5458 42.179 49.0942 41.6649 48.7792C41.1507 48.4642 40.5592 48.2983 39.9563 48.3ZM21.2531 52.9406C20.9061 52.912 20.5824 52.7539 20.3465 52.4978C20.1106 52.2416 19.9796 51.9061 19.9796 51.5578C19.9796 51.2096 20.1106 50.874 20.3465 50.6179C20.5824 50.3617 20.9061 50.2036 21.2531 50.175C21.6002 50.2036 21.9239 50.3617 22.1598 50.6179C22.3957 50.874 22.5267 51.2096 22.5267 51.5578C22.5267 51.9061 22.3957 52.2416 22.1598 52.4978C21.9239 52.7539 21.6002 52.912 21.2531 52.9406ZM39.9563 52.9406C39.6092 52.912 39.2855 52.7539 39.0496 52.4978C38.8137 52.2416 38.6827 51.9061 38.6827 51.5578C38.6827 51.2096 38.8137 50.874 39.0496 50.6179C39.2855 50.3617 39.6092 50.2036 39.9563 50.175C40.3033 50.2036 40.627 50.3617 40.8629 50.6179C41.0988 50.874 41.2298 51.2096 41.2298 51.5578C41.2298 51.9061 41.0988 52.2416 40.8629 52.4978C40.627 52.7539 40.3033 52.912 39.9563 52.9406Z" fill="url(#paint2_linear_44_228)"/>
<defs>
<linearGradient id="paint0_linear_44_228" x1="29.5219" y1="40.3125" x2="31.3969" y2="40.3125" gradientUnits="userSpaceOnUse">
<stop stop-color="#9F2FFF"/>
<stop offset="1" stop-color="#0BB1D3"/>
</linearGradient>
<linearGradient id="paint1_linear_44_228" x1="2.8125" y1="26.6625" x2="56.2969" y2="26.6625" gradientUnits="userSpaceOnUse">
<stop stop-color="#9F2FFF"/>
<stop offset="1" stop-color="#0BB1D3"/>
</linearGradient>
<linearGradient id="paint2_linear_44_228" x1="17.9906" y1="48.4875" x2="43.2188" y2="48.4875" gradientUnits="userSpaceOnUse">
<stop stop-color="#9F2FFF"/>
<stop offset="1" stop-color="#0BB1D3"/>
</linearGradient>
</defs>
</svg>
