<svg width="60" height="60" viewBox="0 0 60 60" fill="none" xmlns="http://www.w3.org/2000/svg">
<g clip-path="url(#clip0_44_318)">
<path d="M30 0C46.5938 0 60 13.4062 60 30C60 46.5938 46.5938 60 30 60C13.4062 60 0 46.5938 0 30C0 13.4062 13.4062 0 30 0Z" fill="#316CFF"/>
<path d="M37.5 24.375C37.5 27.2812 36.5625 30 34.9688 32.1562L37.5 34.6875L34.6875 37.5L32.1562 34.9688C30 36.5625 27.2812 37.5 24.375 37.5C17.1562 37.5 11.25 31.5938 11.25 24.375C11.25 17.1562 17.1562 11.25 24.375 11.25C31.5938 11.25 37.5 17.1562 37.5 24.375Z" fill="white"/>
<path d="M24.375 13.9688C30.0938 13.9688 34.7812 18.6562 34.7812 24.375C34.7812 30.0938 30.0938 34.7812 24.375 34.7812C18.6562 34.7812 13.9688 30.0938 13.9688 24.375C13.9688 18.6562 18.6562 13.9688 24.375 13.9688Z" fill="#68B2EA"/>
<path d="M41.25 37.5L37.5 41.25L33 36.75L33.5625 36.375L36.375 33.5625L36.75 33L41.25 37.5Z" fill="#FFEA29"/>
<path d="M46.875 46.875C45.8438 47.9062 44.1562 47.9062 43.125 46.875L35.625 39.375L39.375 35.625L46.875 43.125C47.9062 44.1562 47.9062 45.8438 46.875 46.875Z" fill="#2C2C3D"/>
<path d="M22.5938 16.2188C23.0625 16.2188 23.5313 16.5937 23.5313 17.1562C23.5313 17.625 23.1563 18.0938 22.5938 18.0938C20.4375 18.0938 18.0938 20.4375 18.0938 22.5938C18.0938 23.0625 17.7188 23.5313 17.1562 23.5313C16.6875 23.5313 16.2188 23.1563 16.2188 22.5938C16.2188 19.4063 19.3125 16.2188 22.5938 16.2188Z" fill="white"/>
</g>
<defs>
<clipPath id="clip0_44_318">
<rect width="60" height="60" fill="white"/>
</clipPath>
</defs>
</svg>
