<svg width="60" height="60" viewBox="0 0 60 60" fill="none" xmlns="http://www.w3.org/2000/svg">
<path d="M54.375 19.6875C54.8723 19.6875 55.3492 19.49 55.7008 19.1383C56.0525 18.7867 56.25 18.3098 56.25 17.8125V4.40625C56.25 3.90897 56.0525 3.43206 55.7008 3.08042C55.3492 2.72879 54.8723 2.53125 54.375 2.53125H5.67188C5.17459 2.53125 4.69768 2.72879 4.34605 3.08042C3.99442 3.43206 3.79688 3.90897 3.79688 4.40625V17.8125C3.79688 18.3098 3.99442 18.7867 4.34605 19.1383C4.69768 19.49 5.17459 19.6875 5.67188 19.6875H12.4406V26.25H5.67188C5.17459 26.25 4.69768 26.4475 4.34605 26.7992C3.99442 27.1508 3.79688 27.6277 3.79688 28.125V41.5594C3.79688 42.0567 3.99442 42.5336 4.34605 42.8852C4.69768 43.2368 5.17459 43.4344 5.67188 43.4344H28.125V53.7469H24.6094C24.1121 53.7469 23.6352 53.9444 23.2835 54.296C22.9319 54.6477 22.7344 55.1246 22.7344 55.6219C22.7344 56.1192 22.9319 56.5961 23.2835 56.9477C23.6352 57.2993 24.1121 57.4969 24.6094 57.4969H35.3906C35.8879 57.4969 36.3648 57.2993 36.7165 56.9477C37.0681 56.5961 37.2656 56.1192 37.2656 55.6219C37.2656 55.1246 37.0681 54.6477 36.7165 54.296C36.3648 53.9444 35.8879 53.7469 35.3906 53.7469H31.875V43.4344H54.375C54.8723 43.4344 55.3492 43.2368 55.7008 42.8852C56.0525 42.5336 56.25 42.0567 56.25 41.5594V28.125C56.25 27.6277 56.0525 27.1508 55.7008 26.7992C55.3492 26.4475 54.8723 26.25 54.375 26.25H47.5594V19.6875H54.375ZM7.54688 6.28125H52.5V15.9375H7.54688V6.28125ZM52.5 39.6844H7.54688V30H52.5V39.6844ZM43.8094 26.25H16.1906V19.6875H43.8094V26.25Z" fill="url(#paint0_linear_132_2)"/>
<path d="M35.325 13.2844C35.6052 13.2898 35.8831 13.2323 36.1382 13.1161C36.3933 12.9999 36.6191 12.828 36.799 12.613C36.9789 12.3981 37.1083 12.1455 37.1777 11.8739C37.2471 11.6024 37.2547 11.3187 37.2 11.0438C37.1711 10.9225 37.1335 10.8034 37.0875 10.6875C36.9968 10.4614 36.8594 10.257 36.6844 10.0875C36.431 9.82506 36.1042 9.64532 35.7469 9.57188C35.5022 9.52503 35.2509 9.52503 35.0062 9.57188C34.765 9.62043 34.5356 9.71599 34.3312 9.85313C34.2289 9.92039 34.1346 9.99902 34.05 10.0875C33.7919 10.3468 33.6153 10.676 33.542 11.0344C33.4687 11.3929 33.5019 11.7649 33.6374 12.1048C33.7729 12.4446 34.0049 12.7373 34.3048 12.9469C34.6046 13.1566 34.9593 13.2738 35.325 13.2844V13.2844Z" fill="url(#paint1_linear_132_2)"/>
<path d="M41.4844 13.2844C41.7646 13.2898 42.0425 13.2323 42.2976 13.1161C42.5527 12.9999 42.7785 12.828 42.9584 12.613C43.1383 12.3981 43.2677 12.1455 43.3371 11.8739C43.4065 11.6024 43.4141 11.3187 43.3594 11.0438C43.3305 10.9225 43.2929 10.8034 43.2469 10.6875C43.0801 10.2893 42.781 9.96082 42.4002 9.75757C42.0193 9.55432 41.5799 9.48873 41.1563 9.57189C40.6696 9.66944 40.2414 9.95601 39.9656 10.3688C39.8937 10.4675 39.8339 10.5745 39.7875 10.6875C39.7403 10.8022 39.7057 10.9216 39.6844 11.0438C39.6309 11.3125 39.637 11.5896 39.7021 11.8558C39.7673 12.1219 39.89 12.3705 40.0616 12.5841C40.2332 12.7977 40.4495 12.9711 40.6953 13.0921C40.9411 13.213 41.2105 13.2787 41.4844 13.2844Z" fill="url(#paint2_linear_132_2)"/>
<path d="M47.6438 13.2844C47.924 13.2898 48.2019 13.2323 48.457 13.1161C48.7121 12.9999 48.9379 12.828 49.1178 12.613C49.2977 12.3981 49.4271 12.1455 49.4965 11.8739C49.5658 11.6024 49.5735 11.3187 49.5188 11.0438C49.4974 10.9216 49.4628 10.8022 49.4156 10.6875C49.3692 10.5745 49.3094 10.4675 49.2375 10.3688C49.1727 10.2647 49.0938 10.17 49.0031 10.0875C48.8298 9.91472 48.6265 9.77494 48.4031 9.67501C48.287 9.63203 48.168 9.59756 48.0469 9.57188C47.8055 9.52389 47.557 9.52389 47.3156 9.57188C47.1973 9.5963 47.0812 9.6308 46.9688 9.67501C46.7382 9.76681 46.5303 9.90755 46.3594 10.0875C46.0102 10.4388 45.8141 10.914 45.8141 11.4094C45.8141 11.9047 46.0102 12.38 46.3594 12.7313C46.7002 13.0744 47.1603 13.2725 47.6438 13.2844V13.2844Z" fill="url(#paint3_linear_132_2)"/>
<path d="M37.05 34.7813C36.8846 34.3794 36.5847 34.0476 36.2016 33.8424C35.8186 33.6372 35.3762 33.5714 34.95 33.6563C34.7135 33.7108 34.4883 33.806 34.2844 33.9375C34.077 34.073 33.8986 34.2483 33.7594 34.4531C33.6228 34.6568 33.5302 34.8867 33.4875 35.1281C33.4406 35.3728 33.4406 35.6241 33.4875 35.8688C33.5709 36.2223 33.7492 36.5465 34.0031 36.8063C34.0939 36.8917 34.191 36.9701 34.2938 37.0406C34.4941 37.177 34.7209 37.2696 34.9594 37.3125C35.2036 37.3641 35.4558 37.3641 35.7 37.3125C35.9385 37.2696 36.1653 37.177 36.3656 37.0406C36.6768 36.8353 36.9197 36.542 37.0633 36.198C37.2069 35.854 37.2447 35.475 37.1719 35.1094C37.1403 34.9969 37.0995 34.8871 37.05 34.7813Z" fill="url(#paint4_linear_132_2)"/>
<path d="M43.2187 34.7812C43.0901 34.4652 42.8777 34.1903 42.6043 33.9861C42.331 33.7819 42.0072 33.6562 41.6676 33.6224C41.3281 33.5887 40.9859 33.6482 40.6777 33.7946C40.3695 33.9409 40.1071 34.1686 39.9187 34.4531C39.7821 34.6568 39.6895 34.8867 39.6469 35.1281C39.5953 35.3723 39.5953 35.6246 39.6469 35.8687C39.7169 36.1989 39.8747 36.504 40.1036 36.7519C40.3326 36.9998 40.6242 37.1813 40.9477 37.2773C41.2712 37.3733 41.6146 37.3802 41.9417 37.2973C42.2688 37.2144 42.5675 37.0447 42.8062 36.8062C43.0655 36.5505 43.2447 36.2247 43.3219 35.8687C43.3687 35.6241 43.3687 35.3728 43.3219 35.1281C43.2974 35.0098 43.2629 34.8937 43.2187 34.7812V34.7812Z" fill="url(#paint5_linear_132_2)"/>
<path d="M45.9375 36.2156C45.9844 36.3266 46.0408 36.4332 46.1062 36.5344C46.1795 36.6377 46.2611 36.7349 46.35 36.825C46.5443 37.0159 46.7779 37.1621 47.0345 37.2536C47.2911 37.345 47.5646 37.3794 47.8358 37.3544C48.1071 37.3295 48.3697 37.2457 48.6052 37.1089C48.8408 36.9721 49.0438 36.7857 49.2 36.5625C49.3392 36.3627 49.435 36.136 49.4812 35.8969C49.5281 35.6522 49.5281 35.4009 49.4812 35.1563C49.4352 34.9142 49.3394 34.6844 49.2 34.4813C49.1352 34.3772 49.0563 34.2825 48.9656 34.2C48.7483 33.9822 48.4806 33.8212 48.1863 33.7313C47.892 33.6414 47.5801 33.6253 47.2781 33.6844C47.1595 33.712 47.0435 33.7496 46.9312 33.7969C46.7011 33.8851 46.4931 34.0227 46.3219 34.2C46.2312 34.2825 46.1523 34.3772 46.0875 34.4813C45.9494 34.6869 45.8535 34.9179 45.8052 35.1609C45.7569 35.4039 45.7573 35.654 45.8062 35.8969C45.8385 36.0075 45.8825 36.1144 45.9375 36.2156Z" fill="url(#paint6_linear_132_2)"/>
<defs>
<linearGradient id="paint0_linear_132_2" x1="3.79688" y1="30" x2="56.2031" y2="30" gradientUnits="userSpaceOnUse">
<stop stop-color="#17A6D7"/>
<stop offset="1" stop-color="#9D31FE"/>
</linearGradient>
<linearGradient id="paint1_linear_132_2" x1="33.45" y1="11.4094" x2="37.2" y2="11.4094" gradientUnits="userSpaceOnUse">
<stop stop-color="#17A6D7"/>
<stop offset="1" stop-color="#9D31FE"/>
</linearGradient>
<linearGradient id="paint2_linear_132_2" x1="39.6094" y1="11.4094" x2="43.3594" y2="11.4094" gradientUnits="userSpaceOnUse">
<stop stop-color="#17A6D7"/>
<stop offset="1" stop-color="#9D31FE"/>
</linearGradient>
<linearGradient id="paint3_linear_132_2" x1="45.7688" y1="11.4094" x2="49.5188" y2="11.4094" gradientUnits="userSpaceOnUse">
<stop stop-color="#17A6D7"/>
<stop offset="1" stop-color="#9D31FE"/>
</linearGradient>
<linearGradient id="paint4_linear_132_2" x1="33.45" y1="35.4938" x2="37.1906" y2="35.4938" gradientUnits="userSpaceOnUse">
<stop stop-color="#17A6D7"/>
<stop offset="1" stop-color="#9D31FE"/>
</linearGradient>
<linearGradient id="paint5_linear_132_2" x1="39.6094" y1="35.5031" x2="43.3594" y2="35.5031" gradientUnits="userSpaceOnUse">
<stop stop-color="#17A6D7"/>
<stop offset="1" stop-color="#9D31FE"/>
</linearGradient>
<linearGradient id="paint6_linear_132_2" x1="45.7687" y1="35.4938" x2="49.5187" y2="35.4938" gradientUnits="userSpaceOnUse">
<stop stop-color="#17A6D7"/>
<stop offset="1" stop-color="#9D31FE"/>
</linearGradient>
</defs>
</svg>
