<svg width="60" height="57" viewBox="0 0 60 57" fill="none" xmlns="http://www.w3.org/2000/svg">
<g clip-path="url(#clip0_44_213)">
<path d="M20.339 55.9322C22.5856 55.9322 24.4068 54.111 24.4068 51.8644C24.4068 49.6178 22.5856 47.7966 20.339 47.7966C18.0924 47.7966 16.2712 49.6178 16.2712 51.8644C16.2712 54.111 18.0924 55.9322 20.339 55.9322Z" fill="#95A5A5"/>
<path d="M48.8136 55.9322C51.0601 55.9322 52.8814 54.111 52.8814 51.8644C52.8814 49.6178 51.0601 47.7966 48.8136 47.7966C46.567 47.7966 44.7458 49.6178 44.7458 51.8644C44.7458 54.111 46.567 55.9322 48.8136 55.9322Z" fill="#95A5A5"/>
<path fill-rule="evenodd" clip-rule="evenodd" d="M59.339 15.2542L55.2712 25.4237L54.4576 27.4576L49.2712 40.4135C48.9674 41.187 48.2208 41.6955 47.3898 41.6949H18.6203L18.2237 41.8373L13.2407 27.4576L12.539 25.4237L9.01016 15.2542H59.339Z" fill="#BDC3C7"/>
<path fill-rule="evenodd" clip-rule="evenodd" d="M59.8475 13.9729L59.339 15.2543H9.01016L7.5966 11.1865H57.9661C58.639 11.1892 59.267 11.5245 59.6436 12.0822C60.0201 12.6399 60.0964 13.3478 59.8475 13.9729Z" fill="#3B97D3"/>
<path fill-rule="evenodd" clip-rule="evenodd" d="M39.6915 41.6949L43.0068 27.4576H54.4576L55.2712 25.4237H43.4847L45.8542 15.2542H43.7695L41.4 25.4237H26.7356L24.3661 15.2542H22.2814L24.6508 25.4237H13.6088L5.50271 2.05119C5.07692 0.823445 3.92016 0.000164682 2.62068 0H1.01695C0.455304 0 0 0.455304 0 1.01695C0 1.57859 0.455304 2.0339 1.01695 2.0339H2.62068C3.05387 2.03376 3.43961 2.30806 3.5817 2.71729L19.3312 48.1302C19.4732 48.539 19.8584 48.8133 20.2912 48.8136H48.8136C49.3752 48.8136 49.8305 48.3583 49.8305 47.7966C49.8305 47.235 49.3752 46.7797 48.8136 46.7797H21.0153L14.3146 27.4576H25.1288L28.4542 41.6949H30.5288L27.2136 27.4576H40.922L37.5966 41.6949H39.6915Z" fill="#95A5A5"/>
<path d="M20.339 56.9492C17.5308 56.9492 15.2542 54.6726 15.2542 51.8644C15.2542 49.0562 17.5308 46.7797 20.339 46.7797C23.1472 46.7797 25.4237 49.0562 25.4237 51.8644C25.4204 54.6712 23.1458 56.9458 20.339 56.9492ZM20.339 48.8136C18.6541 48.8136 17.2881 50.1795 17.2881 51.8644C17.2881 53.5493 18.6541 54.9153 20.339 54.9153C22.0239 54.9153 23.3898 53.5493 23.3898 51.8644C23.3898 50.1795 22.0239 48.8136 20.339 48.8136Z" fill="#393F4A"/>
<path d="M48.8136 56.9492C46.0053 56.9492 43.7288 54.6726 43.7288 51.8644C43.7288 49.0562 46.0053 46.7797 48.8136 46.7797C51.6218 46.7797 53.8983 49.0562 53.8983 51.8644C53.895 54.6712 51.6204 56.9458 48.8136 56.9492ZM48.8136 48.8136C47.1286 48.8136 45.7627 50.1795 45.7627 51.8644C45.7627 53.5493 47.1286 54.9153 48.8136 54.9153C50.4985 54.9153 51.8644 53.5493 51.8644 51.8644C51.8644 50.1795 50.4985 48.8136 48.8136 48.8136Z" fill="#393F4A"/>
<path d="M20.339 52.8814C20.9006 52.8814 21.3559 52.4261 21.3559 51.8644C21.3559 51.3028 20.9006 50.8475 20.339 50.8475C19.7773 50.8475 19.322 51.3028 19.322 51.8644C19.322 52.4261 19.7773 52.8814 20.339 52.8814Z" fill="#ECF0F1"/>
<path d="M48.8135 52.8814C49.3752 52.8814 49.8305 52.4261 49.8305 51.8644C49.8305 51.3028 49.3752 50.8475 48.8135 50.8475C48.2519 50.8475 47.7966 51.3028 47.7966 51.8644C47.7966 52.4261 48.2519 52.8814 48.8135 52.8814Z" fill="#ECF0F1"/>
<path fill-rule="evenodd" clip-rule="evenodd" d="M40.678 50.8475H28.4746C27.9129 50.8475 27.4576 51.3028 27.4576 51.8644C27.4576 52.4261 27.9129 52.8814 28.4746 52.8814H40.678C41.2396 52.8814 41.6949 52.4261 41.6949 51.8644C41.6949 51.3028 41.2396 50.8475 40.678 50.8475Z" fill="#7F8C8D"/>
<path d="M50.8475 22.3729C55.9023 22.3729 60 18.2752 60 13.2204C60 8.16554 55.9023 4.06781 50.8475 4.06781C45.7926 4.06781 41.6949 8.16554 41.6949 13.2204C41.6949 18.2752 45.7926 22.3729 50.8475 22.3729Z" fill="#24AE5F"/>
<path fill-rule="evenodd" clip-rule="evenodd" d="M54.9152 12.2034H51.8644V9.15257C51.8644 8.59092 51.4091 8.13562 50.8474 8.13562C50.2858 8.13562 49.8305 8.59092 49.8305 9.15257V12.2034H46.7796C46.218 12.2034 45.7627 12.6587 45.7627 13.2204C45.7627 13.782 46.218 14.2373 46.7796 14.2373H49.8305V17.2882C49.8305 17.8498 50.2858 18.3051 50.8474 18.3051C51.4091 18.3051 51.8644 17.8498 51.8644 17.2882V14.2373H54.9152C55.4769 14.2373 55.9322 13.782 55.9322 13.2204C55.9322 12.6587 55.4769 12.2034 54.9152 12.2034Z" fill="white"/>
</g>
<defs>
<clipPath id="clip0_44_213">
<rect width="60" height="56.9492" fill="white"/>
</clipPath>
</defs>
</svg>
