<svg width="79" height="60" viewBox="0 0 79 60" fill="none" xmlns="http://www.w3.org/2000/svg">
<g clip-path="url(#clip0_44_315)">
<path fill-rule="evenodd" clip-rule="evenodd" d="M60.566 37.0874C60.0064 37.2528 59.7647 37.8315 59.7774 38.4865C59.7838 38.7854 59.8347 39.0906 59.93 39.3959C60.0254 39.6948 60.1653 39.9809 60.3434 40.2226C60.744 40.7822 61.3418 41.1256 62.035 40.8839C62.0922 40.8649 62.1431 40.8712 62.1876 40.8903C62.2003 40.8839 62.2067 40.8839 62.2258 40.8776C62.4038 40.8204 62.5628 40.7758 62.7091 40.725C62.8744 40.6741 63.027 40.6359 63.1733 40.5914C63.2878 40.5596 63.4022 40.6296 63.434 40.7377C63.4404 40.744 63.4404 40.7568 63.4404 40.7631L63.504 41.0366C63.663 41.7488 63.8156 42.442 64.0254 42.9952C64.0318 43.0016 64.0572 43.0843 64.0827 43.1606C64.2099 43.5103 64.3434 43.8919 64.5215 44.1081C64.6741 44.2989 64.8903 44.3625 65.2273 44.1017C65.2909 44.0445 65.3545 43.9873 65.4181 43.9364C65.6216 43.7647 65.8188 43.593 65.8887 43.3386C65.8442 43.275 65.7552 43.2369 65.6661 43.1987C65.3736 43.0715 65.0811 42.9507 65.1574 42.3339L65.1701 42.2448C65.1955 42.0668 65.2019 41.9714 65.1955 41.9332C65.1892 41.9142 65.1447 41.8696 65.0556 41.7933L65.0238 41.7615C64.8521 41.6025 64.7886 41.3736 64.7949 41.132C64.8013 40.8458 64.8903 40.5278 64.9857 40.3052C65.0175 40.2353 65.0811 40.1908 65.151 40.1781C67.3323 39.8792 68.6614 40.2544 69.7234 40.5596C69.7679 40.5723 69.8124 40.5851 69.8569 40.5978C68.9094 39.6248 68.1335 38.1494 67.6057 36.6296C67.0461 35.027 66.7599 33.38 66.8299 32.2226C65.965 33.5008 64.4452 35.5294 60.8267 36.8585C60.8204 36.8585 60.8204 36.8649 60.814 36.8649L60.7886 36.8839C60.7504 36.8967 60.744 36.8903 60.7377 36.903C60.7313 36.9094 60.7377 36.9094 60.725 36.9348C60.725 36.9412 60.7313 36.9285 60.6868 36.9921C60.655 37.0366 60.6169 37.062 60.566 37.0874ZM57.469 16.8394H73.6725C74.9062 16.8394 76.0318 17.3418 76.8331 18.1494C77.6471 18.9634 78.1431 20.0827 78.1431 21.31V55.5358C78.1431 56.7695 77.6407 57.8951 76.8331 58.6963C76.0191 59.5103 74.8998 60.0064 73.6725 60.0064H57.469C56.2353 60.0064 55.1097 59.504 54.3084 58.6963C53.4944 57.8824 52.9984 56.7631 52.9984 55.5358V21.3037C52.9984 20.07 53.5008 18.9444 54.3084 18.1431C55.1224 17.3291 56.2353 16.8394 57.469 16.8394ZM26.9507 22.5183C25.9968 22.8045 25.5898 23.7901 25.6025 24.903C25.6089 25.4118 25.7043 25.9396 25.8696 26.4547C26.035 26.9698 26.2703 27.4531 26.5692 27.8665C27.256 28.8204 28.2671 29.399 29.4563 28.9921C29.5517 28.9666 29.6407 28.973 29.7234 29.0048C29.7425 28.9984 29.7615 28.9921 29.787 28.9857C30.0859 28.8903 30.3593 28.8076 30.6073 28.7313C30.8871 28.6486 31.1479 28.5723 31.4022 28.5024C31.593 28.4515 31.7965 28.566 31.8474 28.7504C31.8537 28.7631 31.8537 28.7758 31.8537 28.7949L31.9618 29.2655C32.2353 30.4801 32.496 31.6566 32.8521 32.6041C32.8585 32.6169 32.903 32.7568 32.9539 32.8839C33.1701 33.4817 33.4054 34.124 33.7043 34.5056C33.9714 34.8362 34.3339 34.9316 34.9062 34.4928C35.0143 34.3911 35.1224 34.3021 35.2305 34.2067C35.5739 33.9142 35.911 33.6216 36.0382 33.1828C35.9618 33.0747 35.8092 33.0111 35.6566 32.9475C35.1542 32.7313 34.6645 32.5278 34.7917 31.4785L34.8108 31.3259C34.8553 31.0207 34.868 30.8617 34.8553 30.7981C34.849 30.7599 34.7727 30.69 34.62 30.5564L34.5628 30.5056C34.2703 30.2321 34.1622 29.8506 34.1685 29.4372C34.1749 28.9475 34.3339 28.407 34.4992 28.0254C34.5501 27.9046 34.6582 27.8283 34.7854 27.8029C38.5056 27.2878 40.7758 27.93 42.5819 28.4515C42.6582 28.4706 42.7409 28.496 42.8108 28.5151C41.1955 26.849 39.8792 24.337 38.9762 21.7552C38.0223 19.027 37.5326 16.2162 37.6534 14.2448C36.1781 16.4197 33.5835 19.8855 27.4149 22.1558C27.4086 22.1558 27.4022 22.1622 27.3959 22.1622L27.345 22.1749C27.2814 22.194 27.275 22.1876 27.2623 22.2067C27.2496 22.2194 27.2623 22.2194 27.2432 22.2576C27.2432 22.2639 27.2496 22.2448 27.1797 22.3593C27.1288 22.4356 27.0588 22.4865 26.9825 22.5183H26.9507ZM42.3211 21.9905C42.3211 22.8808 41.4436 24.4897 40.903 24.5151C41.8378 26.3402 42.9825 27.93 44.2735 28.8712C44.3498 28.8776 44.4134 28.8839 44.4897 28.8839C44.6169 28.8776 44.7377 28.8458 44.8776 28.7631C45.1701 28.4642 45.3545 28 45.4563 27.4149C45.7488 25.6089 45.1574 22.7727 44.1653 20.0445C43.1733 17.31 41.7806 14.7027 40.4833 13.3545C40.0064 12.8649 39.5549 12.5469 39.1669 12.4897C39.0652 12.4769 39.0079 12.4706 38.9825 12.4833C38.9507 12.496 38.8998 12.5405 38.8172 12.6169C38.779 12.655 38.7409 12.6932 38.6963 12.744C38.69 12.7568 38.69 12.7631 38.6836 12.7822C38.0795 14.0413 38.2766 16.744 39.0588 19.6502C39.6566 19.3704 42.3339 19.6884 42.3339 21.9841H42.3211V21.9905ZM44.2353 29.5898C44.159 29.6025 44.0763 29.5962 44 29.5517C43.9364 29.539 43.8665 29.5199 43.7901 29.5072C43.3196 29.4054 42.8553 29.2782 42.3529 29.1383C40.6486 28.655 38.5056 28.0382 35.0588 28.4833C34.9507 28.7758 34.868 29.1256 34.8617 29.4372C34.8617 29.6661 34.9062 29.8569 35.027 29.9714L35.0843 30.0223C35.3386 30.2576 35.4722 30.372 35.5358 30.6073C35.593 30.8045 35.5612 31.0143 35.5167 31.4149L35.4976 31.5676C35.434 32.0763 35.682 32.1844 35.9237 32.2862C36.248 32.4197 36.566 32.5596 36.725 32.9984C36.7568 33.062 36.7631 33.132 36.744 33.2146C36.6041 33.9587 36.1399 34.3593 35.6757 34.7472C35.5739 34.8299 35.4658 34.9253 35.3768 35.0143L35.3577 35.0334C34.3529 35.841 33.6598 35.6121 33.132 34.9571C32.7504 34.4865 32.5024 33.787 32.2607 33.1383C32.2417 33.0811 32.2162 33.0238 32.159 32.8649C31.7965 31.8792 31.5231 30.6709 31.2432 29.4308L31.2178 29.3037C31.0843 29.3482 30.938 29.38 30.8045 29.4245C30.5246 29.5072 30.2576 29.5898 29.9968 29.6725C29.9587 29.6789 29.9396 29.6916 29.9269 29.7043C29.7552 29.7679 29.6852 29.806 29.5326 29.7297C28.0572 30.1622 26.8108 29.4436 25.9841 28.2862C25.6407 27.8092 25.3672 27.2496 25.1828 26.6709C24.9984 26.0922 24.8967 25.4881 24.8903 24.9094C24.8776 23.5294 25.399 22.3021 26.62 21.876C26.6773 21.7742 26.7154 21.7234 26.7917 21.6598C26.8744 21.5898 26.9507 21.5644 27.0906 21.5072L27.1415 21.4944C27.1479 21.4944 27.1542 21.4881 27.1542 21.4881C33.4944 19.1606 35.9237 15.5294 37.3037 13.4563C37.6916 12.8776 37.9968 12.4197 38.3021 12.1145C38.4547 11.9618 38.5692 11.8728 38.7218 11.8156C38.8808 11.7583 39.0461 11.752 39.2623 11.7901C39.8219 11.8728 40.3943 12.2607 40.9857 12.8712C42.3593 14.2893 43.8029 16.9921 44.8267 19.8092C45.8569 22.6391 46.4674 25.5962 46.1558 27.5358C46.035 28.2862 45.7806 28.8967 45.3482 29.3037C45.3355 29.3164 45.3227 29.3291 45.2973 29.3418C45.0238 29.5262 44.7695 29.5962 44.5024 29.6089C44.407 29.6089 44.318 29.6089 44.2289 29.6025L44.2353 29.5898ZM1.93959 0H69.4245C70.4928 0 71.3641 0.871224 71.3641 1.93959V13.6661H67.2432V5.36725C67.2432 4.42607 66.4738 3.65024 65.5262 3.65024H5.83148C4.8903 3.65024 4.11447 4.41971 4.11447 5.36725V38.7727C4.11447 39.7138 4.88394 40.4897 5.83148 40.4897H48.7758V48.5851H1.93959C0.871224 48.5851 0 47.7138 0 46.6455V1.93959C0 0.871224 0.871224 0 1.93959 0ZM26.8808 51.2623H44.477C44.5215 54.3084 45.7742 57.0302 49.1765 59.1796H22.1876C24.903 57.2083 26.8935 54.8108 26.8808 51.2623ZM35.682 42.0477C37.0556 42.0477 38.1749 43.1606 38.1749 44.5405C38.1749 45.9142 37.0556 47.0334 35.682 47.0334C34.3084 47.0334 33.1892 45.9205 33.1892 44.5405C33.1892 43.1669 34.3021 42.0477 35.682 42.0477ZM65.5644 54.5119C66.5755 54.5119 67.4022 55.3259 67.4022 56.3498C67.4022 57.3609 66.5882 58.1876 65.5644 58.1876C64.5533 58.1876 63.7266 57.3736 63.7266 56.3498C63.7266 55.3386 64.5405 54.5119 65.5644 54.5119ZM54.8808 53.1129H76.2544V21.1447H54.8808V53.1129ZM69.5771 36.7758C69.5771 37.2973 69.062 38.2385 68.744 38.2576C69.2909 39.3323 69.965 40.2607 70.7218 40.814C70.7663 40.8204 70.8045 40.8204 70.849 40.8204C70.9253 40.814 70.9952 40.8013 71.0779 40.7504C71.2496 40.5723 71.3577 40.3052 71.4149 39.9618C71.5866 38.8998 71.2369 37.2401 70.6582 35.6439C70.0731 34.0413 69.2591 32.5151 68.496 31.7202C68.2162 31.434 67.9491 31.2496 67.7266 31.2114C67.6693 31.2051 67.6375 31.1987 67.6184 31.2051C67.5994 31.2114 67.5676 31.2369 67.5231 31.2878C67.504 31.3068 67.4785 31.3323 67.4531 31.3641C67.4467 31.3704 67.4467 31.3768 67.4467 31.3831C67.0906 32.1208 67.2051 33.7043 67.6693 35.4086C68.0127 35.2432 69.5835 35.4277 69.5771 36.7758ZM70.7027 41.2337C70.6582 41.2401 70.6137 41.2401 70.5628 41.2146C70.5246 41.2083 70.4801 41.1955 70.442 41.1892C70.1685 41.132 69.8951 41.0556 69.6025 40.973C68.6041 40.6868 67.345 40.3307 65.3227 40.5851C65.2591 40.7568 65.2083 40.9603 65.2083 41.1447C65.2083 41.2782 65.2337 41.3927 65.3037 41.4563L65.3355 41.4881C65.4881 41.628 65.5644 41.6916 65.6025 41.8315C65.6343 41.9459 65.6216 42.0731 65.5898 42.3021L65.5771 42.3911C65.539 42.69 65.6852 42.7536 65.8315 42.8172C66.0223 42.8998 66.2067 42.9762 66.3021 43.2369C66.3211 43.275 66.3211 43.3196 66.3148 43.3641C66.2321 43.7965 65.9587 44.0318 65.6852 44.2671C65.628 44.318 65.5644 44.3688 65.5072 44.4197L65.4944 44.4324C64.903 44.903 64.496 44.7695 64.1908 44.3879C63.9682 44.1145 63.8219 43.7011 63.682 43.3196C63.6693 43.2878 63.6566 43.2496 63.6248 43.1606C63.4086 42.5819 63.2496 41.876 63.0906 41.1447L63.0715 41.0684C62.9889 41.0938 62.9062 41.1129 62.8299 41.1383C62.6646 41.1892 62.5056 41.2337 62.3593 41.2846C62.3402 41.2909 62.3275 41.2973 62.3148 41.3037C62.213 41.3418 62.1749 41.3609 62.0858 41.3227C61.221 41.5771 60.4897 41.1574 60.0064 40.4769C59.8029 40.1971 59.6439 39.8728 59.5358 39.5294C59.4277 39.1924 59.3704 38.8362 59.3641 38.4928C59.3577 37.6852 59.663 36.9666 60.3752 36.7122C60.407 36.655 60.4324 36.6232 60.4769 36.5851C60.5278 36.5405 60.566 36.5278 60.655 36.496L60.6868 36.4897C60.6932 36.4897 60.6932 36.4833 60.6932 36.4833C64.4134 35.1161 65.8315 32.9857 66.6455 31.7711C66.8744 31.434 67.0525 31.1669 67.2305 30.9825C67.3196 30.8935 67.3831 30.8426 67.4785 30.8045C67.5739 30.7727 67.6693 30.7663 67.7965 30.7854C68.1208 30.8362 68.4642 31.0588 68.8076 31.4149C69.6089 32.248 70.4611 33.8315 71.0588 35.4849C71.663 37.1447 72.0191 38.8808 71.8347 40.0127C71.7647 40.4515 71.6121 40.814 71.3641 41.0493C71.3577 41.0556 71.345 41.0684 71.3323 41.0684C71.1733 41.1765 71.0207 41.221 70.868 41.221C70.8045 41.2464 70.7472 41.2464 70.7027 41.2337Z" fill="url(#paint0_linear_44_315)"/>
</g>
<defs>
<linearGradient id="paint0_linear_44_315" x1="39.0715" y1="0" x2="39.0715" y2="60.0064" gradientUnits="userSpaceOnUse">
<stop stop-color="#6713D2"/>
<stop offset="1" stop-color="#0BB1D3"/>
</linearGradient>
<clipPath id="clip0_44_315">
<rect width="78.1431" height="60" fill="white"/>
</clipPath>
</defs>
</svg>
