<svg width="60" height="60" viewBox="0 0 60 60" fill="none" xmlns="http://www.w3.org/2000/svg">
<path d="M40.2461 18.4486H36.343V36.3081H40.2461V18.4486Z" fill="#2E79BD"/>
<path d="M33.4771 18.4486H29.2285V36.3081H33.4771V18.4486Z" fill="#2E79BD"/>
<path d="M27.364 18.4486H25.0105V36.3081H27.364V18.4486Z" fill="#2E79BD"/>
<path d="M23.383 18.4486H19.7532V36.3081H23.383V18.4486Z" fill="#2E79BD"/>
<path d="M47.369 3.08184C46.7698 2.46137 46.0498 1.97033 45.2534 1.63905C44.457 1.30777 43.6011 1.14328 42.7386 1.15575H17.2614C16.3989 1.14328 15.543 1.30777 14.7467 1.63905C13.9503 1.97033 13.2302 2.46137 12.6311 3.08184C12.0108 3.6812 11.5199 4.40126 11.1886 5.19762C10.8574 5.99399 10.6928 6.84978 10.705 7.71221V52.2878C10.7102 54.025 11.4026 55.6897 12.631 56.9181C13.8595 58.1466 15.5241 58.839 17.2614 58.8442H42.7386C44.4759 58.839 46.1405 58.1466 47.369 56.9181C48.5974 55.6897 49.2899 54.0251 49.2951 52.2878V7.71221C49.3066 6.84987 49.1417 5.99429 48.8104 5.19802C48.4792 4.40175 47.9887 3.68161 47.369 3.08184ZM31.8447 56.2495C31.4189 56.6644 30.8627 56.9193 30.2704 56.9708C29.678 57.0224 29.0861 56.8674 28.5951 56.5322C28.104 56.1971 27.744 55.7023 27.5761 55.132C27.4082 54.5616 27.4428 53.9507 27.6741 53.403C27.9053 52.8552 28.3189 52.4043 28.8447 52.1268C29.3705 51.8493 29.9761 51.7622 30.5588 51.8803C31.1415 51.9984 31.6654 52.3145 32.0416 52.7749C32.4178 53.2353 32.6232 53.8116 32.6229 54.4062C32.6251 54.7502 32.5573 55.091 32.4235 55.4079C32.2897 55.7248 32.0928 56.0112 31.8447 56.2495ZM45.3364 47.045C45.3328 47.7329 45.0579 48.3915 44.5715 48.8779C44.0851 49.3643 43.4265 49.6391 42.7386 49.6427H17.2614C16.5739 49.6378 15.916 49.3625 15.4299 48.8764C14.9438 48.3903 14.6686 47.7324 14.6636 47.045V7.71221C14.6686 7.02477 14.9438 6.36688 15.4299 5.88076C15.916 5.39465 16.5739 5.11938 17.2614 5.11445H42.7386C43.4261 5.11939 44.0839 5.39467 44.57 5.88078C45.0561 6.36689 45.3314 7.02477 45.3364 7.71221V47.045Z" fill="#2D3E50"/>
</svg>
