<svg width="60" height="60" viewBox="0 0 60 60" fill="none" xmlns="http://www.w3.org/2000/svg">
<path opacity="0.8" d="M30 38.75C19.6613 38.75 11.25 30.3387 11.25 20C11.25 9.66125 19.6613 1.25 30 1.25C40.3387 1.25 48.75 9.66125 48.75 20C48.75 30.3387 40.3387 38.75 30 38.75Z" fill="#43A6DD"/>
<path opacity="0.8" d="M20 58.75C9.66125 58.75 1.25 50.3387 1.25 40C1.25 29.6613 9.66125 21.25 20 21.25C30.3387 21.25 38.75 29.6613 38.75 40C38.75 50.3387 30.3387 58.75 20 58.75Z" fill="#E86C60"/>
<path opacity="0.8" d="M40 58.75C29.6613 58.75 21.25 50.3387 21.25 40C21.25 29.6613 29.6613 21.25 40 21.25C50.3387 21.25 58.75 29.6613 58.75 40C58.75 50.3387 50.3387 58.75 40 58.75Z" fill="#EFD358"/>
</svg>
