<svg width="60" height="60" viewBox="0 0 60 60" fill="none" xmlns="http://www.w3.org/2000/svg">
<path d="M56.25 57.5H3.75C2.36875 57.5 1.25 56.3813 1.25 55V10C1.25 8.61875 2.36875 7.5 3.75 7.5H56.25C57.6313 7.5 58.75 8.61875 58.75 10V55C58.75 56.3813 57.6313 57.5 56.25 57.5Z" fill="#444444"/>
<path d="M56.25 16.25H3.75V55H56.25V16.25Z" fill="white"/>
<path d="M5.625 13.75C6.66053 13.75 7.5 12.9105 7.5 11.875C7.5 10.8395 6.66053 10 5.625 10C4.58947 10 3.75 10.8395 3.75 11.875C3.75 12.9105 4.58947 13.75 5.625 13.75Z" fill="#E86C60"/>
<path d="M11.875 13.75C12.9105 13.75 13.75 12.9105 13.75 11.875C13.75 10.8395 12.9105 10 11.875 10C10.8395 10 10 10.8395 10 11.875C10 12.9105 10.8395 13.75 11.875 13.75Z" fill="#EFD358"/>
<path d="M18.125 13.75C19.1605 13.75 20 12.9105 20 11.875C20 10.8395 19.1605 10 18.125 10C17.0895 10 16.25 10.8395 16.25 11.875C16.25 12.9105 17.0895 13.75 18.125 13.75Z" fill="#72C472"/>
<path d="M47.715 3.53496C46.3337 2.15371 44.0962 2.15371 42.715 3.53496L26.92 19.33C28.155 19.5562 29.2937 20.1425 30.2012 21.05C31.1087 21.9575 31.6937 23.095 31.92 24.33L47.715 8.53496C49.095 7.15496 49.095 4.91621 47.715 3.53496Z" fill="#A67C52"/>
<path d="M26.92 19.33L20 26.25L25 31.25L31.92 24.33C31.6937 23.095 31.1075 21.9562 30.2012 21.05C29.2937 20.1437 28.155 19.5575 26.92 19.33Z" fill="#E6E6E6"/>
<path d="M51.25 51.25H8.75C8.06 51.25 7.5 50.69 7.5 50V41.25C7.5 40.56 8.06 40 8.75 40H51.25C51.94 40 52.5 40.56 52.5 41.25V50C52.5 50.69 51.94 51.25 51.25 51.25Z" fill="#E86C60"/>
<path d="M26.0788 33.99C27.1913 32.8225 27.8125 31.3075 27.8125 29.6887C27.8125 28.0187 27.1625 26.45 25.9825 25.27C24.8025 24.09 23.2325 23.4387 21.5625 23.4387C19.8925 23.4387 18.3238 24.09 17.1425 25.27C15.8225 26.59 15.3088 29.3487 15.1138 31.6312C17.1088 32.15 18.475 32.54 19.9213 32.9312C21.71 33.4125 23.555 33.915 26.0788 33.99Z" fill="#444444"/>
<path d="M15.01 35.025L15.0412 36.21L16.225 36.2412C16.3862 36.245 16.63 36.25 16.94 36.25C19.0237 36.25 24.0487 36.04 25.9812 34.1062C26.0175 34.07 26.0425 34.0262 26.0775 33.9887C21.6275 32.7712 19.7512 31.2874 15.1137 31.6287C14.9812 33.1862 14.9962 34.5225 15.01 35.025Z" fill="#E86C60"/>
</svg>
