<svg width="60" height="60" viewBox="0 0 60 60" fill="none" xmlns="http://www.w3.org/2000/svg">
<path d="M12.1875 11.625C12.9375 12.1875 13.875 12.9375 14.8125 13.3125C14.25 14.625 13.875 15.75 13.5 16.875H17.0625C17.25 16.3125 17.4375 15.75 17.625 15C19.3125 15.75 21 16.3125 22.875 16.875H36.9375C38.8125 16.5 40.5 15.75 42.1875 15C42.375 15.5625 42.5625 16.125 42.75 16.875H46.3125C45.9375 15.75 45.5625 14.625 45.1875 13.5C46.125 12.9375 46.875 12.375 47.8125 11.8125C49.3125 13.3125 50.8125 15 51.9375 16.875H57C52.125 6.9375 41.8125 0 30 0C18.1875 0 7.875 6.9375 3 16.875H8.0625C9.1875 15 10.6875 13.3125 12.1875 11.625ZM45.1875 9.5625C44.8125 9.9375 44.25 10.125 43.6875 10.5C43.125 9.375 42.375 8.4375 41.8125 7.5C43.125 8.0625 44.0625 8.8125 45.1875 9.5625ZM40.875 12C39.375 12.75 37.875 13.3125 36.1875 13.6875C35.8125 10.5 35.0625 7.3125 34.125 4.875C36.75 6.1875 39 8.8125 40.875 12ZM29.625 4.5C29.8125 4.5 29.8125 4.5 30 4.5C30.1875 4.5 30.1875 4.5 30.375 4.5C31.125 5.8125 32.25 9.1875 33 14.25C32.0625 14.4375 31.125 14.4375 30.1875 14.4375C29.25 14.4375 28.3125 14.4375 27.375 14.25C27.9375 9.1875 28.875 5.8125 29.625 4.5ZM25.875 5.0625C24.9375 7.5 24.375 10.5 23.8125 13.6875C22.3125 13.3125 20.625 12.75 19.125 12C21 8.8125 23.25 6.375 25.875 5.0625ZM18.1875 7.3125C17.4375 8.25 16.875 9.375 16.125 10.5C15.75 10.125 15.1875 9.9375 14.8125 9.5625C15.9375 8.8125 17.0625 8.0625 18.1875 7.3125ZM47.8125 48.375C47.0625 47.8125 46.125 47.0625 45.1875 46.6875C45.5625 45.5625 46.125 44.4375 46.3125 43.3125H42.75C42.5625 43.875 42.375 44.625 42.1875 45.1875C40.5 44.4375 38.8125 43.875 36.9375 43.3125H22.875C21 43.6875 19.3125 44.25 17.625 45.1875C17.4375 44.625 17.25 44.0625 17.0625 43.3125H13.5C13.875 44.4375 14.25 45.5625 14.625 46.6875C13.6875 47.25 12.9375 47.8125 12 48.375C10.6875 46.6875 9.1875 45 8.0625 43.125H3C7.875 53.0625 18.1875 60 30 60C41.8125 60 52.125 53.0625 57 43.125H51.9375C50.8125 45 49.3125 46.6875 47.8125 48.375ZM14.8125 50.4375C15.1875 50.0625 15.75 49.6875 16.125 49.5C16.6875 50.625 17.4375 51.5625 18 52.5C17.0625 51.9375 15.9375 51.375 14.8125 50.4375ZM19.3125 48C20.8125 47.25 22.3125 46.6875 24 46.3125C24.375 49.5 25.125 52.6875 26.0625 54.9375C23.25 53.625 21 51.1875 19.3125 48ZM30.375 55.5C30.1875 55.5 30.1875 55.5 30 55.5C29.8125 55.5 29.8125 55.5 29.625 55.5C28.875 54.1875 27.75 50.8125 27 45.75C27.9375 45.5625 28.875 45.5625 29.8125 45.5625C30.75 45.5625 31.6875 45.5625 32.625 45.75C32.0625 50.8125 31.125 54.1875 30.375 55.5ZM34.125 55.125C35.0625 52.6875 35.625 49.6875 36.1875 46.3125C37.875 46.6875 39.375 47.25 40.875 48C39 51.1875 36.75 53.8125 34.125 55.125ZM41.8125 52.6875C42.5625 51.75 43.125 50.625 43.6875 49.6875C44.25 50.0625 44.625 50.25 45.1875 50.625C44.0625 51.375 43.125 51.9375 41.8125 52.6875ZM9 36L10.125 31.875C10.5 30.75 10.6875 29.625 10.875 28.125C11.0625 29.625 11.25 30.75 11.625 31.875L12.75 36H16.3125L19.875 24H16.3125L15.375 28.6875C15.1875 30 14.8125 31.3125 14.625 32.8125C14.4375 31.5 14.0625 30.1875 13.6875 28.6875L12.5625 24H9.5625L8.25 28.875C7.875 30 7.6875 31.5 7.3125 32.8125C7.125 31.5 6.9375 30.1875 6.5625 28.875L5.625 24H1.875L5.25 36H9ZM34.3125 28.6875C34.125 30 33.75 31.3125 33.5625 32.8125C33.375 31.5 33 30.1875 32.625 28.6875L31.5 24H28.5L27.1875 28.875C26.8125 30 26.625 31.5 26.25 32.8125C26.0625 31.5 25.875 30.1875 25.5 28.875L24.5625 24H20.8125L24.1875 36H27.75L28.875 31.875C29.25 30.75 29.4375 29.625 29.625 28.125C29.8125 29.625 30 30.75 30.375 31.875L31.5 36H35.0625L38.625 24H35.0625L34.3125 28.6875ZM53.25 28.6875C53.0625 30 52.6875 31.3125 52.5 32.8125C52.3125 31.5 51.9375 30.1875 51.5625 28.6875L50.4375 24H47.4375L46.125 28.875C45.75 30 45.5625 31.5 45.1875 32.8125C45 31.5 44.8125 30.1875 44.4375 28.875L43.5 24H39.75L43.125 36H46.875L48 31.875C48.375 30.75 48.5625 29.625 48.75 28.125C48.9375 29.625 49.125 30.75 49.5 31.875L50.625 36H54.375L57.9375 24H54.375L53.25 28.6875Z" fill="url(#paint0_linear_44_337)"/>
<defs>
<linearGradient id="paint0_linear_44_337" x1="1.99875" y1="19.806" x2="58.0127" y2="40.1934" gradientUnits="userSpaceOnUse">
<stop stop-color="#2183BF"/>
<stop offset="1" stop-color="#19086D"/>
</linearGradient>
</defs>
</svg>
